<?xml version="1.0" encoding="UTF-8" standalone="no"?>
<svg
   xmlns:dc="http://purl.org/dc/elements/1.1/"
   xmlns:cc="http://creativecommons.org/ns#"
   xmlns:rdf="http://www.w3.org/1999/02/22-rdf-syntax-ns#"
   xmlns:svg="http://www.w3.org/2000/svg"
   xmlns="http://www.w3.org/2000/svg"
   xmlns:sodipodi="http://sodipodi.sourceforge.net/DTD/sodipodi-0.dtd"
   xmlns:inkscape="http://www.inkscape.org/namespaces/inkscape"
   width="1536.0007"
   height="575.99902"
   clip-rule="evenodd"
   version="1.1"
   id="svg30"
   sodipodi:docname="banner-dark.svg"
   inkscape:version="1.0.2-2 (e86c870879, 2021-01-15)">
  <metadata
     id="metadata34">
    <rdf:RDF>
      <cc:Work
         rdf:about="">
        <dc:format>image/svg+xml</dc:format>
        <dc:type
           rdf:resource="http://purl.org/dc/dcmitype/StillImage" />
      </cc:Work>
    </rdf:RDF>
  </metadata>
  <sodipodi:namedview
     pagecolor="#ffffff"
     bordercolor="#666666"
     borderopacity="1"
     objecttolerance="10"
     gridtolerance="10"
     guidetolerance="10"
     inkscape:pageopacity="0"
     inkscape:pageshadow="2"
     inkscape:window-width="1920"
     inkscape:window-height="1051"
     id="namedview32"
     showgrid="false"
     inkscape:zoom="1.1204422"
     inkscape:cx="768.00035"
     inkscape:cy="287.9995"
     inkscape:window-x="-9"
     inkscape:window-y="-9"
     inkscape:window-maximized="1"
     inkscape:current-layer="svg30" />
  <defs
     id="defs18">
    <style
       type="text/css"
       id="style2"><![CDATA[
    .fil2 {fill:#FFF212}
    .fil0 {fill:#3E4095}
    .fil1 {fill:yellow}
    .fil3 {fill:#FEFEFE;fill-rule:nonzero}
   ]]></style>
    <mask
       id="id0">
      <linearGradient
         id="id1"
         x1="0"
         x2="1"
         y1="0.5"
         y2="0.5">
        <stop
           offset="0"
           stop-color="white"
           stop-opacity="0"
           id="stop4" />
        <stop
           offset="1"
           stop-color="white"
           id="stop6" />
      </linearGradient>
      <rect
         fill="url(#id1)"
         height="88.779999"
         id="svg_1"
         width="74.970001"
         x="11.85"
         y="59.080002" />
    </mask>
    <mask
       id="id2">
      <linearGradient
         id="id3"
         x1="0"
         x2="1"
         y1="0.5"
         y2="0.5">
        <stop
           offset="0"
           stop-color="white"
           stop-opacity="0"
           id="stop11" />
        <stop
           offset="1"
           stop-color="white"
           id="stop13" />
      </linearGradient>
      <rect
         fill="url(#id3)"
         height="85.900002"
         id="svg_2"
         width="94.970001"
         x="43.639999"
         y="42.040001" />
    </mask>
  </defs>
  <g
     class="layer"
     id="g28"
     transform="matrix(3.0702072,0,0,3.0702125,0.00673577,-0.00257029)">
    <title
       id="title20">Layer 1</title>
    <g
       id="Camada_x0020_1">
      <metadata
         id="CorelCorpID_0Corel-Layer" />
      <path
         class="fil0"
         d="m 139.4,88.61 c -0.48,0.89 -1.01,1.72 -1.58,2.51 -0.2,0.27 -8.29,9.98 -15.8,19 l 20.85,-12.39 c 4.89,-2.66 7.46,-6 7.2,-9.39 0.01,-0.26 0.02,-0.52 0.02,-0.79 0,-4.91 -1.96,-6.76 -7.22,-10.17 L 142.24,77 c 0.03,0.46 0.05,0.9 0.05,1.34 0,0.59 -0.03,1.13 -0.09,1.64 -0.43,3.7 -1.76,6.73 -2.8,8.63 z M 53.42,150.92 5.87,87.75 V 56.27 H 36.61 50.39 C 55.9,50.08 65.15,42.45 78.87,39.32 L 29.54,9.98 C 22.24,5.72 11.94,-1.93 5.87,0.45 1.72,2.26 0.03,6.47 0.04,10.65 l 0.02,153.81 c -0.23,1.85 0.19,3.74 1.06,5.43 1.06,2.19 2.35,3.66 4.75,4.77 2.13,0.83 4.79,0.43 7.65,-0.63 1.61,-0.53 3.16,-1.28 4.67,-2.14 3.95,-2.09 7.97,-4.79 11.34,-6.77 0.01,0 0.01,0 0.01,0 z"
         id="svg_3" />
      <path
         class="fil1"
         d="m 71.18,123.29 c 0,0 -25.92,-31.2 -25.93,-31.21 -0.27,-0.27 -0.54,-0.58 -0.83,-0.98 -0.57,-0.77 -1.1,-1.6 -1.58,-2.49 -1.04,-1.9 -2.36,-4.93 -2.79,-8.62 -0.07,-0.52 -0.1,-1.06 -0.1,-1.65 0,-1.24 0.15,-2.56 0.44,-3.94 0.58,-2.78 1.57,-5.31 2.79,-7.72 l 9.54,-7.6 c -13.98,0.78 -26.93,1.5 -40.87,2.27 v 26.4 l 46.72,60.11 28.25,-16.8 c -9.88,-1.63 -15.31,-7.41 -15.56,-7.69 -0.02,-0.02 -0.06,-0.06 -0.08,-0.08 z"
         id="svg_4"
         mask="url(#id0)" />
      <path
         class="fil2"
         d="m 112.7,115.67 c 9.18,-11.02 21.51,-25.84 22.12,-26.6 0.47,-0.64 0.91,-1.34 1.32,-2.09 0.89,-1.63 2.03,-4.24 2.4,-7.4 0.05,-0.38 0.07,-0.79 0.07,-1.24 0,-1.17 -0.16,-2.44 -0.48,-3.78 L 107.05,56.08 c -18.18,1 -36.29,2.01 -54.33,3 -1.43,1.66 -2.71,3.33 -3.81,5 -3.35,5.02 -5.27,10.22 -5.27,14.26 0,0.45 0.02,0.86 0.07,1.25 0.37,3.15 1.51,5.76 2.4,7.39 0.4,0.75 0.85,1.46 1.32,2.09 0.3,0.41 0.43,0.56 0.49,0.61 0.08,0.06 0.15,0.14 0.21,0.21 0,0 25.87,31.12 25.91,31.18 0.37,0.39 6.17,6.44 16.82,6.87 0.2,0 0.29,0 0.52,0 0.26,-0.01 0.5,-0.02 0.75,-0.04 z M 50.39,56.27 h 49.97 l 6.61,-0.24 -23.53,-13.99 c -7.56,1.16 -13.8,3.79 -18.86,6.91 z"
         id="svg_5"
         mask="url(#id2)" />
      <path
         class="fil3"
         d="m 193.4,112.57 v 59.91 h -14.38 v -39.55 h -0.19 l -13.65,39.55 h -12.24 l -13.64,-39.4 h -0.17 v 39.4 h -14.06 v -59.91 h 19.63 l 14.63,43.14 h 0.15 l 14.58,-43.14 z m 11.07,0 h 23.83 c 3.81,0 7.29,0.36 10.39,1.1 3.11,0.74 5.88,1.77 8.3,3.08 2.42,1.33 4.52,2.9 6.28,4.75 1.77,1.84 3.23,3.86 4.38,6.07 1.16,2.21 2.02,4.56 2.57,7.07 0.55,2.5 0.83,5.07 0.83,7.71 0,4.34 -0.69,8.35 -2.09,12.02 -1.39,3.66 -3.44,6.85 -6.16,9.54 -2.71,2.69 -6.09,4.8 -10.13,6.3 -4.04,1.51 -8.72,2.27 -14.06,2.27 h -24.14 z m 22.57,49.3 c 6.16,0 10.9,-1.6 14.21,-4.79 3.32,-3.18 4.98,-8.01 4.98,-14.47 0,-3.3 -0.46,-6.17 -1.34,-8.6 -0.88,-2.45 -2.18,-4.46 -3.86,-6.06 -1.68,-1.61 -3.72,-2.81 -6.13,-3.59 -2.41,-0.79 -5.14,-1.18 -8.17,-1.18 h -7.68 v 38.69 z m 80.08,-2.5 h -24.75 l -4.69,13.11 h -14.65 l 23.17,-59.91 h 17.53 l 23.21,59.91 H 311.81 Z M 303.4,149 294.88,125.05 h -0.19 l -8.6,23.95 z m 55.53,24.33 c -2.7,0 -5.11,-0.5 -7.25,-1.52 -2.15,-1.01 -4.02,-2.47 -5.63,-4.34 h -0.17 v 19.28 h -13.73 v -56.16 h 12.73 l 0.35,6.02 h 0.17 c 1.69,-2.16 3.69,-3.85 6,-5.06 2.3,-1.21 4.87,-1.82 7.73,-1.82 2.93,0 5.57,0.54 7.89,1.64 2.33,1.09 4.3,2.6 5.9,4.53 1.6,1.93 2.83,4.22 3.67,6.87 0.85,2.65 1.28,5.54 1.28,8.63 0,3.1 -0.45,5.98 -1.33,8.65 -0.89,2.66 -2.16,4.98 -3.8,6.94 -1.65,1.98 -3.63,3.52 -5.96,4.65 -2.33,1.14 -4.94,1.69 -7.85,1.69 z m -4.28,-9.51 c 1.56,0 2.92,-0.31 4.09,-0.94 1.17,-0.62 2.15,-1.49 2.94,-2.59 0.77,-1.1 1.35,-2.4 1.73,-3.9 0.38,-1.49 0.57,-3.1 0.57,-4.85 0,-1.67 -0.19,-3.27 -0.57,-4.77 -0.38,-1.49 -0.95,-2.79 -1.69,-3.9 -0.76,-1.12 -1.72,-2 -2.9,-2.65 -1.17,-0.65 -2.53,-0.97 -4.09,-0.97 -1.58,0 -2.96,0.32 -4.12,0.96 -1.16,0.63 -2.12,1.51 -2.91,2.62 -0.78,1.11 -1.36,2.42 -1.74,3.94 -0.37,1.52 -0.56,3.18 -0.56,4.93 0,1.79 0.19,3.43 0.59,4.92 0.39,1.48 0.97,2.75 1.74,3.82 0.76,1.08 1.72,1.91 2.88,2.49 1.16,0.59 2.51,0.89 4.04,0.89 z m 31.24,8.66 v -59.91 h 13.73 v 59.91 z m 49.56,0 -0.32,-5.79 h -0.17 c -1.33,2.13 -3.11,3.77 -5.32,4.92 -2.22,1.15 -4.77,1.72 -7.67,1.72 -2.18,0 -4.17,-0.31 -5.95,-0.94 -1.77,-0.64 -3.28,-1.53 -4.53,-2.67 -1.25,-1.14 -2.22,-2.5 -2.89,-4.06 -0.68,-1.56 -1.01,-3.27 -1.01,-5.12 0,-1.22 0.15,-2.39 0.47,-3.51 0.3,-1.12 0.8,-2.14 1.49,-3.11 0.69,-0.95 1.57,-1.79 2.64,-2.54 1.08,-0.76 2.39,-1.37 3.92,-1.85 1.15,-0.38 2.42,-0.69 3.82,-0.94 1.39,-0.23 2.85,-0.43 4.42,-0.58 1.56,-0.16 3.2,-0.28 4.91,-0.37 1.71,-0.09 3.46,-0.15 5.26,-0.2 v -2.51 c 0,-1.75 -0.6,-3.15 -1.82,-4.23 -1.21,-1.08 -2.95,-1.61 -5.21,-1.61 -1.1,0 -2.09,0.13 -2.96,0.4 -0.88,0.26 -1.66,0.63 -2.33,1.08 -0.66,0.46 -1.24,1.02 -1.71,1.67 -0.47,0.63 -0.87,1.35 -1.18,2.1 l -10.23,-4.83 c 1.65,-3.28 4.01,-5.74 7.1,-7.35 3.07,-1.63 7.11,-2.43 12.08,-2.43 3.31,0 6.22,0.34 8.7,1.03 2.5,0.68 4.56,1.67 6.2,2.95 1.64,1.28 2.88,2.84 3.7,4.69 0.82,1.83 1.22,3.91 1.22,6.23 v 27.85 z m -8.61,-8.12 c 1.19,0 2.25,-0.19 3.2,-0.57 0.94,-0.38 1.75,-0.9 2.43,-1.56 0.66,-0.66 1.18,-1.45 1.53,-2.38 0.34,-0.92 0.52,-1.92 0.52,-2.99 v -2.17 c -1.29,0.08 -2.66,0.18 -4.09,0.3 -1.45,0.13 -2.83,0.3 -4.15,0.49 -0.66,0.11 -1.31,0.25 -1.93,0.43 -0.62,0.17 -1.17,0.43 -1.65,0.76 -0.5,0.34 -0.89,0.75 -1.18,1.26 -0.3,0.51 -0.44,1.14 -0.44,1.9 0,1.27 0.49,2.35 1.45,3.22 0.97,0.87 2.41,1.31 4.31,1.31 z M 500.29,130.59 482.78,175 c -0.82,2.05 -1.71,3.87 -2.69,5.43 -0.98,1.56 -2.14,2.88 -3.47,3.94 -1.33,1.07 -2.89,1.88 -4.66,2.42 -1.78,0.55 -3.85,0.82 -6.22,0.82 -1.46,0 -2.73,-0.09 -3.82,-0.27 -1.09,-0.17 -2.02,-0.37 -2.81,-0.57 v -9.01 c 0.54,0.15 1.13,0.28 1.78,0.4 0.65,0.12 1.35,0.17 2.09,0.17 1.84,0 3.31,-0.35 4.41,-1.04 1.11,-0.7 1.92,-1.89 2.47,-3.57 l -17.13,-43.13 h 14.33 l 9.67,28.78 h 0.15 l 9.69,-28.78 z"
         id="svg_6" />
    </g>
  </g>
</svg>
