<?xml version="1.0" encoding="UTF-8" standalone="no"?>
<svg
   xmlns:dc="http://purl.org/dc/elements/1.1/"
   xmlns:cc="http://creativecommons.org/ns#"
   xmlns:rdf="http://www.w3.org/1999/02/22-rdf-syntax-ns#"
   xmlns:svg="http://www.w3.org/2000/svg"
   xmlns="http://www.w3.org/2000/svg"
   xmlns:sodipodi="http://sodipodi.sourceforge.net/DTD/sodipodi-0.dtd"
   xmlns:inkscape="http://www.inkscape.org/namespaces/inkscape"
   width="2560"
   height="512"
   clip-rule="evenodd"
   version="1.1"
   id="svg31"
   sodipodi:docname="banner-logo-solid.svg"
   inkscape:version="1.0.2-2 (e86c870879, 2021-01-15)">
  <metadata
     id="metadata35">
    <rdf:RDF>
      <cc:Work
         rdf:about="">
        <dc:format>image/svg+xml</dc:format>
        <dc:type
           rdf:resource="http://purl.org/dc/dcmitype/StillImage" />
      </cc:Work>
    </rdf:RDF>
  </metadata>
  <sodipodi:namedview
     pagecolor="#ffffff"
     bordercolor="#666666"
     borderopacity="1"
     objecttolerance="10"
     gridtolerance="10"
     guidetolerance="10"
     inkscape:pageopacity="0"
     inkscape:pageshadow="2"
     inkscape:window-width="1920"
     inkscape:window-height="1051"
     id="namedview33"
     showgrid="false"
     inkscape:zoom="0.65703125"
     inkscape:cx="1280"
     inkscape:cy="256"
     inkscape:window-x="-9"
     inkscape:window-y="-9"
     inkscape:window-maximized="1"
     inkscape:current-layer="svg31" />
  <defs
     id="defs18">
    <style
       type="text/css"
       id="style2"><![CDATA[
    .fil3 {fill:#FFF212}
    .fil1 {fill:#3E4095}
    .fil2 {fill:yellow}
    .fil0 {fill:#000B25;fill-rule:nonzero}
   ]]></style>
    <mask
       id="id0">
      <linearGradient
         id="id1"
         x1="0"
         x2="1"
         y1="0.499955"
         y2="0.499955">
        <stop
           offset="0"
           stop-color="white"
           stop-opacity="0"
           id="stop4" />
        <stop
           offset="1"
           stop-color="white"
           id="stop6" />
      </linearGradient>
      <rect
         fill="url(#id1)"
         height="111.37"
         id="svg_1"
         width="94.050003"
         x="539.87"
         y="88.120003" />
    </mask>
    <mask
       id="id2">
      <linearGradient
         id="id3"
         x1="0"
         x2="1"
         y1="0.50004601"
         y2="0.50004601">
        <stop
           offset="0"
           stop-color="white"
           stop-opacity="0"
           id="stop11" />
        <stop
           offset="1"
           stop-color="white"
           id="stop13" />
      </linearGradient>
      <rect
         fill="url(#id3)"
         height="107.77"
         id="svg_2"
         width="119.14"
         x="579.75"
         y="66.730003" />
    </mask>
  </defs>
  <g
     class="layer"
     id="g29"
     transform="scale(2.0673504)">
    <title
       id="title20">Layer 1</title>
    <g
       id="Camada_x0020_1">
      <metadata
         id="mdaplay" />
      <polygon
         class="fil0"
         id="svg_3"
         points="1238.3,0 1238.3,247.66 0,247.66 0,0 " />
      <g
         id="_1747778557600">
        <path
           class="fil1"
           d="m 699.89,125.16 c -0.61,1.11 -1.27,2.16 -1.99,3.14 -0.25,0.34 -10.39,12.53 -19.82,23.85 l 26.16,-15.56 c 6.14,-3.32 9.36,-7.52 9.03,-11.78 0.02,-0.31 0.02,-0.64 0.02,-0.98 0,-6.16 -2.45,-8.48 -9.05,-12.76 l -0.8,-0.48 c 0.05,0.57 0.07,1.13 0.07,1.68 0,0.74 -0.04,1.42 -0.11,2.06 -0.54,4.64 -2.21,8.45 -3.51,10.83 z M 592.03,203.32 532.37,124.08 V 84.59 h 38.56 17.29 c 6.92,-7.77 18.51,-17.34 35.73,-21.27 l -61.89,-36.8 c -9.15,-5.35 -22.08,-14.94 -29.69,-11.96 -5.21,2.26 -7.33,7.55 -7.32,12.79 l 0.04,192.96 c -0.29,2.33 0.23,4.7 1.32,6.81 1.33,2.75 2.95,4.6 5.96,5.98 2.68,1.05 6,0.55 9.59,-0.78 2.03,-0.67 3.97,-1.62 5.87,-2.69 4.95,-2.63 9.99,-6.01 14.23,-8.49 0,0 0,0 0,0 z"
           id="svg_4" />
        <path
           class="fil2"
           d="m 614.31,168.66 c 0,0 -32.53,-39.14 -32.53,-39.15 -0.35,-0.34 -0.68,-0.73 -1.05,-1.22 -0.71,-0.97 -1.37,-2.02 -1.98,-3.13 -1.3,-2.38 -2.96,-6.19 -3.5,-10.82 -0.08,-0.65 -0.12,-1.33 -0.12,-2.07 0,-1.55 0.19,-3.21 0.55,-4.94 0.73,-3.48 1.97,-6.66 3.49,-9.68 l 11.98,-9.53 c -17.54,0.97 -33.79,1.87 -51.28,2.84 v 33.12 l 58.61,75.41 35.44,-21.08 c -12.39,-2.04 -19.2,-9.3 -19.52,-9.64 -0.03,-0.03 -0.07,-0.08 -0.09,-0.11 z"
           id="svg_5"
           mask="url(#id0)" />
        <path
           class="fil3"
           d="m 666.39,159.1 c 11.51,-13.83 26.98,-32.41 27.75,-33.37 0.59,-0.8 1.15,-1.68 1.65,-2.61 1.12,-2.05 2.55,-5.32 3.02,-9.29 0.05,-0.48 0.08,-0.99 0.08,-1.56 0,-1.47 -0.2,-3.06 -0.59,-4.74 l -39,-23.19 c -22.8,1.27 -45.52,2.52 -68.15,3.78 -1.8,2.07 -3.4,4.16 -4.79,6.26 -4.2,6.31 -6.61,12.83 -6.61,17.89 0,0.57 0.03,1.08 0.09,1.57 0.46,3.96 1.89,7.23 3.01,9.27 0.51,0.95 1.07,1.83 1.65,2.63 0.38,0.51 0.55,0.69 0.63,0.76 0.09,0.08 0.18,0.17 0.26,0.26 0,0 32.45,39.04 32.5,39.12 0.46,0.49 7.74,8.07 21.11,8.61 0.25,0.01 0.36,0 0.65,0 0.32,-0.01 0.62,-0.02 0.94,-0.05 z M 588.22,84.59 h 62.69 l 8.29,-0.31 -29.51,-17.55 c -9.49,1.46 -17.32,4.75 -23.66,8.68 z"
           id="svg_6"
           mask="url(#id2)" />
      </g>
    </g>
  </g>
</svg>
