<?xml version="1.0" encoding="UTF-8" standalone="no"?>
<svg
   xmlns:dc="http://purl.org/dc/elements/1.1/"
   xmlns:cc="http://creativecommons.org/ns#"
   xmlns:rdf="http://www.w3.org/1999/02/22-rdf-syntax-ns#"
   xmlns:svg="http://www.w3.org/2000/svg"
   xmlns="http://www.w3.org/2000/svg"
   xmlns:sodipodi="http://sodipodi.sourceforge.net/DTD/sodipodi-0.dtd"
   xmlns:inkscape="http://www.inkscape.org/namespaces/inkscape"
   xml:space="preserve"
   width="1535.9984"
   height="576.00519"
   version="1.1"
   style="clip-rule:evenodd;fill-rule:evenodd;image-rendering:optimizeQuality;shape-rendering:geometricPrecision;text-rendering:geometricPrecision"
   viewBox="0 0 491.99949 184.50166"
   id="svg32"
   sodipodi:docname="banner-light.svg"
   inkscape:version="1.0.2-2 (e86c870879, 2021-01-15)"><metadata
   id="metadata36"><rdf:RDF><cc:Work
       rdf:about=""><dc:format>image/svg+xml</dc:format><dc:type
         rdf:resource="http://purl.org/dc/dcmitype/StillImage" /></cc:Work></rdf:RDF></metadata><sodipodi:namedview
   pagecolor="#ffffff"
   bordercolor="#666666"
   borderopacity="1"
   objecttolerance="10"
   gridtolerance="10"
   guidetolerance="10"
   inkscape:pageopacity="0"
   inkscape:pageshadow="2"
   inkscape:window-width="1920"
   inkscape:window-height="1051"
   id="namedview34"
   showgrid="false"
   inkscape:zoom="1.0950533"
   inkscape:cx="767.99918"
   inkscape:cy="288.00258"
   inkscape:window-x="-9"
   inkscape:window-y="-9"
   inkscape:window-maximized="1"
   inkscape:current-layer="svg32" />
 <defs
   id="defs20">
  <style
   type="text/css"
   id="style2">
   <![CDATA[
    .fil2 {fill:#FFF212}
    .fil0 {fill:#3E4095}
    .fil1 {fill:yellow}
    .fil3 {fill:#201E1E;fill-rule:nonzero}
   ]]>
  </style>
   <mask
   id="id0">
  <linearGradient
   id="id1"
   gradientUnits="userSpaceOnUse"
   x1="11.65"
   y1="101.76"
   x2="85.379997"
   y2="101.76">
   <stop
   offset="0"
   style="stop-opacity:0; stop-color:white"
   id="stop4" />
   <stop
   offset="1"
   style="stop-opacity:1; stop-color:white"
   id="stop6" />
  </linearGradient>
    <rect
   style="fill:url(#id1)"
   x="11.65"
   y="58.110001"
   width="73.730003"
   height="87.300003"
   id="rect9" />
   </mask>
   <mask
   id="id2">
  <linearGradient
   id="id3"
   gradientUnits="userSpaceOnUse"
   x1="42.91"
   y1="83.580002"
   x2="136.31"
   y2="83.580002">
   <stop
   offset="0"
   style="stop-opacity:0; stop-color:white"
   id="stop12" />
   <stop
   offset="1"
   style="stop-opacity:1; stop-color:white"
   id="stop14" />
  </linearGradient>
    <rect
   style="fill:url(#id3)"
   x="42.91"
   y="41.34"
   width="93.400002"
   height="84.480003"
   id="rect17" />
   </mask>
 </defs>
 <g
   id="Camada_x0020_1"
   transform="translate(-5.2588569e-4,0.00165453)">
  <metadata
   id="CorelCorpID_0Corel-Layer" />
  <path
   class="fil0"
   d="m 137.09,87.14 c -0.47,0.87 -0.99,1.7 -1.56,2.47 -0.19,0.26 -8.14,9.82 -15.53,18.69 l 20.5,-12.19 c 4.81,-2.61 7.34,-5.9 7.08,-9.24 0.01,-0.25 0.02,-0.5 0.02,-0.77 0,-4.83 -1.92,-6.65 -7.1,-10 l -0.62,-0.37 c 0.04,0.44 0.05,0.88 0.05,1.31 0,0.58 -0.03,1.11 -0.09,1.61 -0.42,3.64 -1.73,6.63 -2.75,8.49 z M 52.54,148.42 5.77,86.3 V 55.34 H 36 49.55 C 54.98,49.25 64.07,41.75 77.56,38.67 L 29.05,9.82 C 21.87,5.62 11.74,-1.9 5.77,0.44 1.69,2.22 0.03,6.36 0.04,10.47 l 0.02,151.26 c -0.22,1.83 0.18,3.69 1.04,5.34 1.04,2.16 2.31,3.61 4.67,4.69 2.1,0.82 4.71,0.43 7.52,-0.61 1.59,-0.53 3.11,-1.27 4.6,-2.11 3.88,-2.06 7.83,-4.71 11.15,-6.65 0.01,0 0.01,0 0.01,0 z"
   id="path23" />
  <path
   class="fil1"
   d="m 70,121.24 c 0,0 -25.49,-30.68 -25.5,-30.68 -0.27,-0.27 -0.53,-0.58 -0.82,-0.97 -0.55,-0.75 -1.07,-1.58 -1.55,-2.45 -1.02,-1.86 -2.32,-4.85 -2.75,-8.48 -0.06,-0.51 -0.09,-1.04 -0.09,-1.62 0,-1.22 0.15,-2.52 0.43,-3.87 0.57,-2.73 1.55,-5.23 2.74,-7.59 l 9.39,-7.47 C 38.1,58.87 25.36,59.57 11.65,60.33 V 86.3 l 45.95,59.11 27.78,-16.52 c -9.71,-1.6 -15.05,-7.29 -15.3,-7.56 -0.02,-0.03 -0.06,-0.07 -0.08,-0.09 z"
   mask="url(#id0)"
   id="path25" />
  <path
   class="fil2"
   d="m 110.83,113.75 c 9.03,-10.84 21.16,-25.41 21.75,-26.16 0.47,-0.63 0.9,-1.32 1.3,-2.05 0.88,-1.6 2,-4.17 2.36,-7.28 0.05,-0.37 0.07,-0.78 0.07,-1.22 0,-1.15 -0.16,-2.4 -0.47,-3.71 L 105.28,55.15 c -17.88,0.99 -35.69,1.97 -53.43,2.96 -1.41,1.62 -2.67,3.26 -3.75,4.9 -3.3,4.95 -5.19,10.06 -5.19,14.03 0,0.44 0.03,0.85 0.07,1.23 0.36,3.1 1.49,5.67 2.36,7.27 0.4,0.74 0.84,1.43 1.3,2.06 0.3,0.4 0.43,0.54 0.49,0.59 0.07,0.07 0.14,0.14 0.21,0.21 0,0 25.43,30.61 25.48,30.66 0.35,0.39 6.06,6.33 16.54,6.76 0.19,0 0.28,0 0.51,0 0.25,-0.01 0.49,-0.02 0.74,-0.04 z M 49.55,55.34 H 98.7 L 105.2,55.1 82.06,41.34 c -7.44,1.15 -13.58,3.73 -18.55,6.8 z"
   mask="url(#id2)"
   id="path27" />
  <path
   class="fil3"
   d="m 190.19,110.7 v 58.92 h -14.14 v -38.9 h -0.19 l -13.41,38.9 h -12.04 l -13.42,-38.74 h -0.16 v 38.74 H 123 V 110.7 h 19.3 l 14.38,42.42 h 0.15 l 14.35,-42.42 z m 10.89,0 h 23.43 c 3.76,0 7.17,0.36 10.22,1.09 3.07,0.73 5.79,1.74 8.16,3.03 2.39,1.3 4.45,2.85 6.18,4.66 1.74,1.82 3.18,3.8 4.31,5.98 1.14,2.17 1.98,4.48 2.53,6.95 0.54,2.46 0.81,4.99 0.81,7.58 0,4.27 -0.68,8.21 -2.05,11.82 -1.37,3.6 -3.39,6.74 -6.06,9.38 -2.67,2.65 -5.99,4.72 -9.96,6.2 -3.97,1.49 -8.58,2.23 -13.83,2.23 h -23.74 z m 22.2,48.48 c 6.06,0 10.72,-1.57 13.97,-4.7 3.27,-3.13 4.9,-7.88 4.9,-14.23 0,-3.25 -0.45,-6.07 -1.32,-8.47 -0.86,-2.4 -2.14,-4.38 -3.79,-5.95 -1.66,-1.59 -3.66,-2.77 -6.03,-3.53 -2.38,-0.78 -5.06,-1.17 -8.04,-1.17 h -7.55 v 38.05 z m 78.75,-2.45 h -24.34 l -4.61,12.89 h -14.41 l 22.79,-58.92 h 17.24 l 22.82,58.92 h -14.88 z m -3.66,-10.2 -8.37,-23.56 h -0.19 l -8.46,23.56 z m 54.61,23.93 c -2.65,0 -5.02,-0.5 -7.13,-1.49 -2.11,-1 -3.95,-2.43 -5.54,-4.27 h -0.16 v 18.96 h -13.5 v -55.24 h 12.51 l 0.35,5.92 h 0.16 c 1.67,-2.12 3.64,-3.78 5.9,-4.97 2.26,-1.19 4.8,-1.79 7.6,-1.79 2.89,0 5.48,0.53 7.77,1.61 2.29,1.07 4.23,2.56 5.8,4.46 1.57,1.89 2.78,4.14 3.61,6.75 0.84,2.61 1.26,5.45 1.26,8.49 0,3.04 -0.45,5.88 -1.32,8.5 -0.86,2.63 -2.11,4.9 -3.72,6.83 -1.63,1.95 -3.58,3.47 -5.87,4.58 -2.29,1.11 -4.86,1.66 -7.72,1.66 z m -4.21,-9.36 c 1.53,0 2.87,-0.3 4.02,-0.92 1.16,-0.61 2.12,-1.47 2.89,-2.54 0.76,-1.09 1.33,-2.37 1.71,-3.84 0.37,-1.47 0.56,-3.05 0.56,-4.77 0,-1.65 -0.19,-3.22 -0.56,-4.69 -0.38,-1.47 -0.94,-2.75 -1.67,-3.84 -0.74,-1.1 -1.69,-1.96 -2.84,-2.6 -1.16,-0.64 -2.5,-0.96 -4.03,-0.96 -1.56,0 -2.91,0.32 -4.05,0.94 -1.14,0.63 -2.09,1.49 -2.86,2.59 -0.78,1.08 -1.34,2.37 -1.71,3.87 -0.37,1.5 -0.56,3.12 -0.56,4.85 0,1.76 0.19,3.37 0.59,4.83 0.38,1.46 0.95,2.71 1.7,3.76 0.75,1.06 1.7,1.88 2.84,2.45 1.14,0.58 2.46,0.87 3.97,0.87 z m 30.73,8.52 V 110.7 H 393 v 58.92 z m 48.73,0 -0.32,-5.69 h -0.16 c -1.31,2.09 -3.06,3.71 -5.23,4.83 -2.18,1.14 -4.69,1.7 -7.55,1.7 -2.14,0 -4.09,-0.31 -5.84,-0.93 -1.75,-0.63 -3.23,-1.5 -4.46,-2.62 -1.24,-1.13 -2.18,-2.46 -2.85,-3.99 -0.66,-1.54 -0.99,-3.22 -0.99,-5.04 0,-1.2 0.15,-2.35 0.46,-3.45 0.3,-1.1 0.79,-2.11 1.47,-3.06 0.67,-0.93 1.54,-1.76 2.6,-2.5 1.06,-0.75 2.34,-1.35 3.85,-1.82 1.14,-0.37 2.38,-0.68 3.75,-0.92 1.37,-0.23 2.81,-0.42 4.35,-0.58 1.54,-0.15 3.15,-0.26 4.83,-0.35 1.68,-0.09 3.4,-0.16 5.18,-0.21 v -2.47 c 0,-1.71 -0.6,-3.09 -1.79,-4.15 -1.19,-1.06 -2.9,-1.59 -5.12,-1.59 -1.09,0 -2.07,0.13 -2.92,0.4 -0.87,0.26 -1.63,0.61 -2.29,1.06 -0.65,0.45 -1.22,1 -1.68,1.64 -0.46,0.62 -0.85,1.33 -1.17,2.07 l -10.05,-4.76 c 1.62,-3.22 3.94,-5.64 6.98,-7.22 3.02,-1.6 6.99,-2.39 11.88,-2.39 3.26,0 6.12,0.33 8.56,1.01 2.45,0.68 4.48,1.65 6.1,2.9 1.61,1.27 2.83,2.8 3.63,4.62 0.81,1.8 1.21,3.84 1.21,6.12 v 27.39 z m -8.46,-7.98 c 1.16,0 2.21,-0.19 3.14,-0.56 0.92,-0.37 1.72,-0.89 2.39,-1.54 0.65,-0.65 1.16,-1.43 1.5,-2.34 0.34,-0.91 0.52,-1.89 0.52,-2.94 v -2.13 c -1.28,0.07 -2.62,0.18 -4.03,0.29 -1.42,0.13 -2.78,0.3 -4.08,0.49 -0.65,0.1 -1.29,0.24 -1.9,0.42 -0.61,0.16 -1.15,0.42 -1.62,0.74 -0.49,0.33 -0.87,0.74 -1.15,1.24 -0.3,0.5 -0.44,1.13 -0.44,1.87 0,1.25 0.48,2.31 1.43,3.17 0.94,0.85 2.37,1.29 4.24,1.29 z M 492,128.42 474.77,172.1 c -0.8,2.02 -1.68,3.81 -2.64,5.34 -0.96,1.54 -2.1,2.83 -3.42,3.88 -1.3,1.05 -2.83,1.84 -4.58,2.38 -1.75,0.53 -3.78,0.8 -6.11,0.8 -1.44,0 -2.68,-0.09 -3.76,-0.27 -1.07,-0.16 -1.99,-0.36 -2.76,-0.56 v -8.86 c 0.53,0.15 1.11,0.28 1.75,0.4 0.64,0.11 1.33,0.16 2.06,0.16 1.8,0 3.25,-0.34 4.34,-1.02 1.08,-0.69 1.88,-1.86 2.42,-3.5 l -16.85,-42.43 h 14.1 l 9.5,28.31 h 0.15 l 9.53,-28.31 z"
   id="path29" />
 </g>
</svg>
