<?xml version="1.0" encoding="UTF-8" standalone="no"?>
<svg
   xmlns:dc="http://purl.org/dc/elements/1.1/"
   xmlns:cc="http://creativecommons.org/ns#"
   xmlns:rdf="http://www.w3.org/1999/02/22-rdf-syntax-ns#"
   xmlns:svg="http://www.w3.org/2000/svg"
   xmlns="http://www.w3.org/2000/svg"
   xmlns:xlink="http://www.w3.org/1999/xlink"
   xmlns:sodipodi="http://sodipodi.sourceforge.net/DTD/sodipodi-0.dtd"
   xmlns:inkscape="http://www.inkscape.org/namespaces/inkscape"
   xml:space="preserve"
   width="512"
   height="512"
   version="1.1"
   style="clip-rule:evenodd;fill-rule:evenodd;image-rendering:optimizeQuality;shape-rendering:geometricPrecision;text-rendering:geometricPrecision"
   viewBox="0 0 95.038578 95.036952"
   id="svg10"
   sodipodi:docname="icon-solid-monochrome.svg"
   inkscape:version="1.0.2-2 (e86c870879, 2021-01-15)"><metadata
   id="metadata14"><rdf:RDF><cc:Work
       rdf:about=""><dc:format>image/svg+xml</dc:format><dc:type
         rdf:resource="http://purl.org/dc/dcmitype/StillImage" /><dc:title></dc:title></cc:Work></rdf:RDF></metadata><sodipodi:namedview
   pagecolor="#ffffff"
   bordercolor="#666666"
   borderopacity="1"
   objecttolerance="10"
   gridtolerance="10"
   guidetolerance="10"
   inkscape:pageopacity="0"
   inkscape:pageshadow="2"
   inkscape:window-width="1920"
   inkscape:window-height="1051"
   id="namedview12"
   showgrid="false"
   inkscape:zoom="1.6621094"
   inkscape:cx="256"
   inkscape:cy="256"
   inkscape:window-x="-9"
   inkscape:window-y="-9"
   inkscape:window-maximized="1"
   inkscape:current-layer="Camada_x0020_1"
   inkscape:document-rotation="0" />
 <defs
   id="defs4"><linearGradient
   inkscape:collect="always"
   id="linearGradient859"><stop
     style="stop-color:#999999;stop-opacity:1"
     offset="0"
     id="stop853" /><stop
     style="stop-color:#ffffff;stop-opacity:1"
     offset="0.34838024"
     id="stop861" /><stop
     style="stop-color:#ffffff;stop-opacity:1"
     offset="0.53239691"
     id="stop855" /><stop
     style="stop-color:#999999;stop-opacity:1"
     offset="1"
     id="stop857" /></linearGradient><linearGradient
   inkscape:collect="always"
   id="linearGradient20"><stop
     style="stop-color:#003399;stop-opacity:1"
     offset="0"
     id="stop16" /><stop
     style="stop-color:#ffff99;stop-opacity:1"
     offset="0.5"
     id="stop24" /><stop
     style="stop-color:#003399;stop-opacity:1"
     offset="1"
     id="stop18" /></linearGradient>
  <style
   type="text/css"
   id="style2">
   <![CDATA[
    .fil0 {fill:#FEFEFE}
   ]]>
  </style>
 <linearGradient
   inkscape:collect="always"
   xlink:href="#linearGradient20"
   id="linearGradient22"
   x1="193.27"
   y1="291.75"
   x2="18.781216"
   y2="30.244093"
   gradientUnits="userSpaceOnUse" /><linearGradient
   inkscape:collect="always"
   xlink:href="#linearGradient859"
   id="linearGradient851"
   gradientUnits="userSpaceOnUse"
   x1="178.15436"
   y1="278.92462"
   x2="18.781216"
   y2="30.244093"
   gradientTransform="matrix(0.84960938,0,0,0.84960938,-208.87062,-23.811917)" /></defs>
 <g
   id="Camada_x0020_1"
   transform="matrix(0.24381334,0,0,0.24381334,63.838767,12.950797)"
   style="fill:url(#linearGradient22);fill-opacity:1">
  <metadata
   id="CorelCorpID_0Corel-Layer"
   style="fill:url(#linearGradient22);fill-opacity:1" />
  <rect
   style="fill:#222222;fill-opacity:1;stroke-width:1.43339"
   id="rect863"
   width="389.80057"
   height="389.80057"
   x="-261.83459"
   y="-53.121006" /><path
   class="fil0"
   d="m 54.788659,143.78203 c -0.90908,1.67373 -1.91162,3.254 -2.99912,4.74082 -0.37382,0.50976 -15.66679,18.87832 -29.87226,35.94697 l 39.43037,-23.44922 c 9.25225,-5.02119 14.11201,-11.35078 13.61924,-17.75684 0.0255,-0.47578 0.034,-0.97705 0.034,-1.48681 0,-9.28623 -3.6958,-12.77813 -13.65322,-19.23516 l -1.19795,-0.72217 c 0.068,0.86661 0.10195,1.70772 0.10195,2.53184 0,1.11299 -0.0595,2.13252 -0.16992,3.10107 -0.82412,6.99229 -3.33047,12.73565 -5.29307,16.3295 z M -107.82657,261.62285 -197.77472,142.15927 V 82.618654 l 59.51292,-0.229025 24.68337,0.229025 c 10.4417,-11.716117 27.926659,-26.142484 53.882229,-32.064261 L -153.0088,-4.9335965 c -13.80615,-8.0627925 -33.2792,-22.5231445 -44.75742,-18.0287115 -7.85889,3.41543 -11.05342,11.393263 -11.03643,19.2861335 l 0.051,290.9147445 c -0.4333,3.50039 0.34834,7.07725 1.99658,10.26328 2.00508,4.15459 4.44346,6.93281 8.98887,9.02285 4.02715,1.57178 9.04834,0.81563 14.46035,-1.18095 3.0501,-1.01954 5.97275,-2.43838 8.84443,-4.06114 7.45957,-3.95918 15.06358,-9.05683 21.45264,-12.79511 v 0 z m 33.585059,-52.25948 c 0,0 -49.030959,-59.00537 -49.047949,-59.01386 -0.51826,-0.51827 -1.01104,-1.1045 -1.57178,-1.85215 -1.06201,-1.46133 -2.07305,-3.0416 -2.98213,-4.71533 -1.9626,-3.59385 -4.46894,-9.33721 -5.28457,-16.3125 -0.11895,-0.98555 -0.17842,-2.00508 -0.17842,-3.11807 0,-2.34492 0.28037,-4.84277 0.82412,-7.45107 1.1045,-5.25059 4.34779,-10.27142 6.65023,-14.81683 l 16.68005,-14.146356 c -26.44834,1.46133 -50.94258,2.8207 -77.31446,4.28203 v 49.940036 l 88.367879,113.67774 53.43193,-31.77539 c -18.67441,-3.07559 -28.95469,-14.01856 -29.43047,-14.53682 -0.0425,-0.0425 -0.11045,-0.11895 -0.14443,-0.16143 z M 4.2793887,194.954 C 21.645399,174.10458 44.967179,146.08447 46.122649,144.64863 c 0.88359,-1.21494 1.72471,-2.54033 2.49785,-3.94219 1.68223,-3.09258 3.84023,-8.02031 4.53691,-14.00156 0.085,-0.73067 0.12745,-1.49531 0.12745,-2.35342 0,-2.21748 -0.30586,-4.61338 -0.89209,-7.14522 L -6.4002013,82.253314 c -34.3836897,1.90313 -68.6314497,3.79776 -102.7517587,5.68389 -2.71875,3.13506 -5.13164,6.27861 -7.22168,9.43916 -6.32959,9.507126 -9.96592,19.345606 -9.96592,26.975096 0,0.85811 0.0425,1.62275 0.13594,2.36191 0.69668,5.97276 2.84619,10.90049 4.53691,13.98457 0.77315,1.41885 1.62275,2.76123 2.49785,3.95918 0.56924,0.76465 0.82412,1.04502 0.94307,1.13848 0.14443,0.12744 0.27187,0.26338 0.39082,0.40781 0,0 48.912009,58.85244 49.005469,58.96289 0.68818,0.73916 11.65664,12.1834 31.81787,12.99903 0.37383,0.008 0.54375,0 0.97705,0 0.48428,-0.0255 0.94307,-0.051 1.41885,-0.0765 z M -112.20428,82.389629 -19.050891,82.618654 -6.5531313,82.159864 -51.047181,55.694529 c -14.30742,2.200489 -26.11699,7.162208 -35.67509,13.083985 z"
   id="path7"
   style="fill:url(#linearGradient851);fill-opacity:1;stroke-width:0.849609"
   sodipodi:nodetypes="sccccsccscssccccccccccccccscccccccscccccccccccccsccccscccccccccccccccc" />
 </g>
</svg>
