<?xml version="1.0" encoding="UTF-8" standalone="no"?>
<svg
   xmlns:dc="http://purl.org/dc/elements/1.1/"
   xmlns:cc="http://creativecommons.org/ns#"
   xmlns:rdf="http://www.w3.org/1999/02/22-rdf-syntax-ns#"
   xmlns:svg="http://www.w3.org/2000/svg"
   xmlns="http://www.w3.org/2000/svg"
   xmlns:sodipodi="http://sodipodi.sourceforge.net/DTD/sodipodi-0.dtd"
   xmlns:inkscape="http://www.inkscape.org/namespaces/inkscape"
   width="512"
   height="512"
   clip-rule="evenodd"
   version="1.1"
   id="svg14"
   sodipodi:docname="icon-solid-android.svg"
   inkscape:version="1.0.2-2 (e86c870879, 2021-01-15)">
  <metadata
     id="metadata18">
    <rdf:RDF>
      <cc:Work
         rdf:about="">
        <dc:format>image/svg+xml</dc:format>
        <dc:type
           rdf:resource="http://purl.org/dc/dcmitype/StillImage" />
      </cc:Work>
    </rdf:RDF>
  </metadata>
  <sodipodi:namedview
     pagecolor="#ffffff"
     bordercolor="#666666"
     borderopacity="1"
     objecttolerance="10"
     gridtolerance="10"
     guidetolerance="10"
     inkscape:pageopacity="0"
     inkscape:pageshadow="2"
     inkscape:window-width="1920"
     inkscape:window-height="1051"
     id="namedview16"
     showgrid="false"
     inkscape:zoom="1.7211031"
     inkscape:cx="109.80778"
     inkscape:cy="145.95886"
     inkscape:window-x="-9"
     inkscape:window-y="-9"
     inkscape:window-maximized="1"
     inkscape:current-layer="svg14" />
  <defs
     id="defs4">
    <style
       type="text/css"
       id="style2"><![CDATA[
    .fil1 {fill:#FEFEFE}
    .fil0 {fill:#2E3440}
   ]]></style>
  </defs>
  <g
     class="layer"
     id="g12"
     transform="scale(2.0027382)">
    <title
       id="title6">Layer 1</title>
    <g
       id="Camada_x0020_1">
      <metadata
         id="CorelCorpID_0Corel-Layer" />
      <rect
         class="fil0"
         height="255.64999"
         id="svg_1"
         width="255.64999"
         x="0"
         y="0" />
      <path
         class="fil1"
         d="m 207.38,129.13 c -0.6,1.1 -1.25,2.13 -1.96,3.1 -0.25,0.33 -10.24,12.34 -19.52,23.5 l 25.77,-15.33 c 6.04,-3.28 9.22,-7.42 8.9,-11.61 0.01,-0.31 0.02,-0.63 0.02,-0.97 0,-6.07 -2.42,-8.35 -8.92,-12.57 l -0.79,-0.47 c 0.05,0.56 0.07,1.12 0.07,1.65 0,0.73 -0.04,1.4 -0.11,2.03 -0.54,4.57 -2.18,8.33 -3.46,10.67 z M 101.1,206.15 42.31,128.07 V 89.16 h 38 17.03 C 104.17,81.5 115.59,72.07 132.56,68.2 L 71.57,31.94 C 62.55,26.67 49.82,17.22 42.32,20.15 37.18,22.39 35.09,27.6 35.11,32.76 l 0.03,190.13 c -0.29,2.29 0.23,4.63 1.3,6.71 1.31,2.71 2.91,4.53 5.88,5.9 2.63,1.03 5.91,0.53 9.45,-0.78 1.99,-0.66 3.9,-1.59 5.78,-2.65 4.88,-2.58 9.84,-5.92 14.02,-8.36 0,0 0,0 0,0 z m 21.95,-34.16 c 0,0 -32.05,-38.56 -32.05,-38.57 -0.34,-0.33 -0.67,-0.72 -1.03,-1.21 -0.7,-0.95 -1.36,-1.98 -1.95,-3.08 -1.28,-2.34 -2.92,-6.1 -3.46,-10.66 -0.07,-0.64 -0.11,-1.31 -0.11,-2.04 0,-1.53 0.18,-3.16 0.54,-4.86 0.72,-3.44 1.94,-6.57 3.44,-9.54 l 11.8,-9.39 C 82.95,93.59 66.94,94.48 49.7,95.43 v 32.64 l 57.76,74.3 34.92,-20.77 c -12.21,-2.01 -18.92,-9.16 -19.24,-9.5 -0.02,-0.03 -0.07,-0.08 -0.09,-0.11 z m 51.32,-9.41 c 11.35,-13.63 26.59,-31.94 27.34,-32.88 0.58,-0.79 1.13,-1.66 1.64,-2.58 1.1,-2.02 2.51,-5.24 2.96,-9.15 0.06,-0.47 0.09,-0.98 0.09,-1.54 0,-1.44 -0.2,-3.01 -0.59,-4.66 L 167.39,88.92 c -22.47,1.24 -44.86,2.48 -67.16,3.71 -1.77,2.05 -3.35,4.11 -4.72,6.17 -4.14,6.22 -6.51,12.65 -6.51,17.63 0,0.56 0.03,1.07 0.09,1.55 0.45,3.9 1.86,7.12 2.96,9.14 0.51,0.93 1.06,1.8 1.64,2.59 0.37,0.5 0.54,0.68 0.61,0.74 0.09,0.08 0.18,0.17 0.26,0.27 0,0 31.97,38.46 32.03,38.53 0.45,0.49 7.62,7.96 20.79,8.5 0.25,0 0.36,0 0.64,0 0.32,-0.02 0.62,-0.03 0.93,-0.05 z M 97.34,89.16 h 61.78 l 8.17,-0.3 -29.08,-17.3 c -9.35,1.44 -17.07,4.69 -23.32,8.55 z"
         id="svg_2" />
    </g>
  </g>
</svg>
