<?xml version="1.0" encoding="UTF-8" standalone="no"?>
<svg
   xmlns:dc="http://purl.org/dc/elements/1.1/"
   xmlns:cc="http://creativecommons.org/ns#"
   xmlns:rdf="http://www.w3.org/1999/02/22-rdf-syntax-ns#"
   xmlns:svg="http://www.w3.org/2000/svg"
   xmlns="http://www.w3.org/2000/svg"
   xmlns:sodipodi="http://sodipodi.sourceforge.net/DTD/sodipodi-0.dtd"
   xmlns:inkscape="http://www.inkscape.org/namespaces/inkscape"
   width="512"
   height="512"
   clip-rule="evenodd"
   version="1.1"
   id="svg30"
   sodipodi:docname="icon-solid-black.svg"
   inkscape:version="1.0.2-2 (e86c870879, 2021-01-15)">
  <metadata
     id="metadata34">
    <rdf:RDF>
      <cc:Work
         rdf:about="">
        <dc:format>image/svg+xml</dc:format>
        <dc:type
           rdf:resource="http://purl.org/dc/dcmitype/StillImage" />
      </cc:Work>
    </rdf:RDF>
  </metadata>
  <sodipodi:namedview
     pagecolor="#ffffff"
     bordercolor="#666666"
     borderopacity="1"
     objecttolerance="10"
     gridtolerance="10"
     guidetolerance="10"
     inkscape:pageopacity="0"
     inkscape:pageshadow="2"
     inkscape:window-width="1920"
     inkscape:window-height="1051"
     id="namedview32"
     showgrid="false"
     inkscape:zoom="1.6491563"
     inkscape:cx="257.18903"
     inkscape:cy="253.90227"
     inkscape:window-x="-9"
     inkscape:window-y="-9"
     inkscape:window-maximized="1"
     inkscape:current-layer="svg30" />
  <defs
     id="defs18">
    <style
       type="text/css"
       id="style2"><![CDATA[
    .fil3 {fill:#FFF212}
    .fil1 {fill:#3E4095}
    .fil0 {fill:#000B25}
    .fil2 {fill:yellow}
   ]]></style>
    <mask
       id="id0">
      <linearGradient
         id="id1"
         x1="0"
         x2="1"
         y1="0.5"
         y2="0.5">
        <stop
           offset="0"
           stop-color="white"
           stop-opacity="0"
           id="stop4" />
        <stop
           offset="1"
           stop-color="white"
           id="stop6" />
      </linearGradient>
      <rect
         fill="url(#id1)"
         height="109.74"
         id="svg_1"
         width="92.68"
         x="43.080002"
         y="93.690002" />
    </mask>
    <mask
       id="id2">
      <linearGradient
         id="id3"
         x1="0"
         x2="1"
         y1="0.499953"
         y2="0.499953">
        <stop
           offset="0"
           stop-color="white"
           stop-opacity="0"
           id="stop11" />
        <stop
           offset="1"
           stop-color="white"
           id="stop13" />
      </linearGradient>
      <rect
         fill="url(#id3)"
         height="106.19"
         id="svg_2"
         width="117.39"
         x="82.379997"
         y="72.620003" />
    </mask>
  </defs>
  <g
     class="layer"
     id="g28"
     transform="scale(2.0027382)">
    <title
       id="title20">Layer 1</title>
    <g
       id="Camada_x0020_1">
      <metadata
         id="CorelCorpID_0Corel-Layer" />
      <rect
         class="fil0"
         height="255.64999"
         id="svg_3"
         width="255.64999"
         x="0"
         y="0" />
      <path
         class="fil1"
         d="m 200.76,130.19 c -0.6,1.09 -1.26,2.13 -1.96,3.1 -0.25,0.33 -10.24,12.34 -19.53,23.49 l 25.77,-15.32 c 6.05,-3.28 9.23,-7.42 8.9,-11.61 0.02,-0.31 0.02,-0.63 0.02,-0.97 0,-6.07 -2.41,-8.35 -8.92,-12.57 l -0.78,-0.47 c 0.04,0.56 0.07,1.11 0.07,1.65 0,0.73 -0.04,1.39 -0.12,2.03 -0.53,4.57 -2.17,8.32 -3.45,10.67 z M 94.47,207.21 35.69,129.13 V 90.22 h 38 17.03 c 6.82,-7.66 18.25,-17.09 35.21,-20.96 L 64.95,33 C 55.92,27.72 43.19,18.27 35.69,21.21 c -5.13,2.23 -7.22,7.45 -7.21,12.6 l 0.03,190.14 c -0.28,2.29 0.23,4.62 1.31,6.71 1.31,2.71 2.9,4.53 5.87,5.89 2.64,1.03 5.92,0.54 9.45,-0.77 2,-0.66 3.91,-1.59 5.78,-2.65 4.88,-2.59 9.85,-5.92 14.02,-8.36 0,0 0.01,0 0.01,0 z"
         id="svg_4" />
      <path
         class="fil2"
         d="m 116.43,173.05 c 0,0 -32.05,-38.56 -32.06,-38.57 -0.34,-0.34 -0.66,-0.72 -1.03,-1.21 -0.69,-0.95 -1.35,-1.99 -1.95,-3.08 -1.28,-2.35 -2.92,-6.1 -3.45,-10.66 -0.08,-0.65 -0.12,-1.31 -0.12,-2.04 0,-1.53 0.19,-3.17 0.54,-4.87 0.72,-3.43 1.95,-6.56 3.45,-9.54 l 11.8,-9.39 c -17.28,0.96 -33.29,1.84 -50.53,2.8 v 32.64 l 57.75,74.3 34.93,-20.77 c -12.21,-2.01 -18.93,-9.16 -19.24,-9.5 -0.03,-0.03 -0.07,-0.08 -0.09,-0.11 z"
         id="svg_5"
         mask="url(#id0)" />
      <path
         class="fil3"
         d="m 167.74,163.64 c 11.35,-13.63 26.6,-31.94 27.35,-32.88 0.58,-0.8 1.13,-1.67 1.63,-2.58 1.1,-2.02 2.51,-5.24 2.97,-9.15 0.06,-0.48 0.08,-0.98 0.08,-1.54 0,-1.45 -0.2,-3.02 -0.58,-4.67 L 160.76,89.97 c -22.47,1.25 -44.85,2.49 -67.15,3.72 -1.78,2.05 -3.35,4.11 -4.72,6.17 -4.14,6.22 -6.51,12.64 -6.51,17.63 0,0.56 0.02,1.06 0.08,1.55 0.46,3.9 1.87,7.12 2.97,9.14 0.5,0.92 1.06,1.8 1.63,2.58 0.37,0.5 0.54,0.68 0.62,0.75 0.09,0.08 0.18,0.17 0.26,0.26 0,0 31.96,38.47 32.02,38.54 0.45,0.48 7.62,7.96 20.79,8.49 0.25,0.01 0.36,0 0.64,0 0.32,-0.01 0.62,-0.03 0.93,-0.05 z M 90.72,90.22 h 61.77 l 8.17,-0.31 -29.08,-17.29 c -9.34,1.44 -17.06,4.68 -23.31,8.55 z"
         id="svg_6"
         mask="url(#id2)" />
    </g>
  </g>
</svg>
