<?xml version="1.0" encoding="UTF-8" standalone="no"?>
<svg
   xmlns:dc="http://purl.org/dc/elements/1.1/"
   xmlns:cc="http://creativecommons.org/ns#"
   xmlns:rdf="http://www.w3.org/1999/02/22-rdf-syntax-ns#"
   xmlns:svg="http://www.w3.org/2000/svg"
   xmlns="http://www.w3.org/2000/svg"
   xmlns:xlink="http://www.w3.org/1999/xlink"
   xmlns:sodipodi="http://sodipodi.sourceforge.net/DTD/sodipodi-0.dtd"
   xmlns:inkscape="http://www.inkscape.org/namespaces/inkscape"
   xml:space="preserve"
   width="512px"
   height="512px"
   version="1.1"
   style="shape-rendering:geometricPrecision; text-rendering:geometricPrecision; image-rendering:optimizeQuality; fill-rule:evenodd; clip-rule:evenodd"
   viewBox="0 0 224.2 224.2"
   id="svg12"
   sodipodi:docname="icon-solid-translate.svg"
   inkscape:version="1.0.2-2 (e86c870879, 2021-01-15)"><metadata
   id="metadata16"><rdf:RDF><cc:Work
       rdf:about=""><dc:format>image/svg+xml</dc:format><dc:type
         rdf:resource="http://purl.org/dc/dcmitype/StillImage" /></cc:Work></rdf:RDF></metadata><sodipodi:namedview
   pagecolor="#ffffff"
   bordercolor="#666666"
   borderopacity="1"
   objecttolerance="10"
   gridtolerance="10"
   guidetolerance="10"
   inkscape:pageopacity="0"
   inkscape:pageshadow="2"
   inkscape:window-width="1920"
   inkscape:window-height="1051"
   id="namedview14"
   showgrid="false"
   showguides="false"
   inkscape:zoom="1.6621094"
   inkscape:cx="256"
   inkscape:cy="256"
   inkscape:window-x="-9"
   inkscape:window-y="-9"
   inkscape:window-maximized="1"
   inkscape:current-layer="Camada_x0020_1" />
 <defs
   id="defs4"><linearGradient
   inkscape:collect="always"
   id="linearGradient853"><stop
     style="stop-color:#003399;stop-opacity:1"
     offset="0"
     id="stop849" /><stop
     style="stop-color:#ffff99;stop-opacity:0.7254902;"
     offset="0.30848879"
     id="stop857" /><stop
     style="stop-color:#003399;stop-opacity:0.44313726"
     offset="0.53608197"
     id="stop861" /><stop
     style="stop-color:#003399;stop-opacity:0"
     offset="1"
     id="stop851" /></linearGradient>
  <style
   type="text/css"
   id="style2">
   <![CDATA[
    .fil0 {fill:#000B25}
    .fil1 {fill:#FFFF99}
   ]]>
  </style>
 <linearGradient
   inkscape:collect="always"
   xlink:href="#linearGradient853"
   id="linearGradient859"
   gradientUnits="userSpaceOnUse"
   x1="112.13"
   y1="141.7475"
   x2="111.87522"
   y2="17.485455" /></defs>
 <g
   id="Camada_x0020_1">
  <metadata
   id="CorelCorpID_0Corel-Layer" />
  <rect
   class="fil0"
   width="224.2"
   height="224.2"
   id="rect7"
   x="0"
   y="0" />
  <path
   class="fil1"
   d="M213.79 112.1c0,37.44 -45.53,67.79 -101.69,67.79 -56.16,0 -101.69,-30.35 -101.69,-67.79 0,-37.44 45.53,-67.79 101.69,-67.79 56.16,0 101.69,30.35 101.69,67.79zm-60.23 53.28c-6.51,5.07 -13.97,8.96 -22.06,11.36 10.47,-1.59 20.28,-4.44 29.11,-8.32 -2.29,-1.09 -4.64,-2.11 -7.05,-3.04zm-18.94 -5.56c-3.58,7.63 -7.9,13.19 -12.64,16.4 10.63,-1.56 20.43,-5.76 28.71,-11.91 -5.15,-1.84 -10.52,-3.34 -16.07,-4.49zm-21.16 -2.6l0 19.62c6.86,-0.71 13.36,-6.86 18.48,-17.54 -6,-1.11 -12.18,-1.8 -18.48,-2.08zm-21.61 1.1c5.19,11.28 11.87,17.79 18.94,18.52l0 -19.71c-1.15,-0.03 -2.31,-0.04 -3.47,-0.04 -5.27,0 -10.49,0.29 -15.63,0.88 0.06,0.12 0.11,0.23 0.16,0.35zm-20.28 3.57c8.54,7.18 18.95,12.17 30.38,14.11 -4.71,-3.31 -9,-8.96 -12.54,-16.66 -0.16,-0.34 -0.31,-0.68 -0.46,-1.03 -5.96,0.81 -11.78,2.01 -17.38,3.58zm23.33 15.15c-9.85,-2.73 -18.8,-7.68 -26.29,-14.27 -3.3,1.02 -6.52,2.18 -9.63,3.46 10.57,5.29 22.75,9.05 35.92,10.81zm-10.39 -44.74c1.27,8.53 3.34,16.42 6.13,23.24 5.48,-0.66 11.06,-0.99 16.68,-0.99 1.16,0 2.32,0.01 3.47,0.04l0 -22.91c-1.15,-0.01 -2.31,-0.01 -3.47,-0.01 -7.65,0 -15.28,0.21 -22.81,0.63zm-31.82 3.11c3.61,9.42 9.35,17.78 16.61,24.48 5.99,-1.76 12.23,-3.1 18.63,-4 -2.77,-6.92 -4.83,-14.87 -6.09,-23.43 -9.94,0.63 -19.71,1.61 -29.15,2.95zm-2.69 0.39c-4.27,0.63 -18.69,2.71 -21.96,4.06 6.39,9.83 16.06,18.36 28.02,24.85l0.53 -0.25c3.19,-1.37 6.48,-2.6 9.86,-3.69 -7.2,-6.92 -12.87,-15.43 -16.45,-24.97zm-0.86 -2.45c-2.09,-6.3 -3.28,-13.01 -3.41,-19.98l-26.22 0c0.22,8.51 2.76,16.72 7.08,24.15 7.34,-1.99 14.85,-3.01 22.55,-4.17zm31.26 -19.98l-32 0c0.13,6.84 1.32,13.42 3.41,19.59 9.61,-1.37 19.56,-2.38 29.69,-3.02 -0.68,-5.34 -1.05,-10.9 -1.1,-16.57zm0 -2.54c0.05,-5.85 0.44,-11.58 1.16,-17.07 -10.09,-0.64 -20,-1.65 -29.59,-3.01 -2.19,6.31 -3.43,13.06 -3.57,20.08l32 0zm33.06 -16.31l0 16.31 27.73 0c-0.05,-6.03 -0.48,-11.92 -1.25,-17.56 -8.68,0.7 -17.53,1.12 -26.48,1.25zm-30.4 16.31l27.73 0 0 -16.28c-1.15,0.01 -2.31,0.01 -3.47,0.01 -7.75,0 -15.47,-0.22 -23.09,-0.65 -0.72,5.44 -1.12,11.12 -1.17,16.92zm27.73 18.31l0 -15.77 -27.73 0c0.05,5.62 0.42,11.13 1.1,16.41 7.65,-0.43 15.39,-0.65 23.16,-0.65 1.16,0 2.32,0 3.47,0.01zm2.67 0.03c8.97,0.14 17.85,0.56 26.55,1.25 0.73,-5.48 1.13,-11.2 1.18,-17.05l-27.73 0 0 15.8zm19.57 27.74c3.01,-6.95 5.25,-15.11 6.61,-23.97 -8.58,-0.68 -17.33,-1.09 -26.18,-1.23l0 22.97c6.67,0.28 13.22,1.03 19.57,2.23zm20.04 5.55c8.24,-6.74 14.79,-15.48 18.93,-25.49 -9.55,-1.64 -19.5,-2.92 -29.7,-3.8 -1.36,8.93 -3.6,17.19 -6.62,24.27 6.02,1.27 11.84,2.95 17.39,5.02zm41.81 -20.64c-6.49,-1.65 -13.24,-3.11 -20.21,-4.38 -4.12,10.17 -10.63,19.1 -18.84,26.09 2.36,0.95 4.67,1.97 6.93,3.07l-0.61 1.13c13.9,-6.38 25.25,-15.32 32.73,-25.91zm-15.3 -28.45c-0.14,7.59 -1.53,14.87 -3.98,21.66 6.69,1.22 14.3,2.67 20.79,4.56 5.14,-8.01 8.1,-16.88 8.35,-26.22l-25.16 0zm-2.67 0l-33.05 0c-0.06,5.92 -0.46,11.72 -1.2,17.28 10.41,0.9 20.55,2.21 30.29,3.9 2.43,-6.62 3.82,-13.75 3.96,-21.18zm0 -2.54c-0.14,-7.61 -1.6,-14.91 -4.14,-21.66 -9.71,1.68 -19.81,2.98 -30.17,3.88 0.77,5.71 1.2,11.68 1.26,17.78l33.05 0zm-1.48 -22.13c2.55,6.91 4.01,14.36 4.15,22.13l25.16 0c-0.25,-9.51 -3.32,-18.54 -8.64,-26.66 -6.2,1.9 -14.22,3.35 -20.67,4.53zm-20.01 -28.37c8.27,6.92 14.86,15.81 19.06,25.95 6.93,-1.25 13.64,-2.7 20.09,-4.33 -7.35,-10.21 -18.32,-18.88 -31.69,-25.14 -1.87,1.39 -5.22,2.63 -7.46,3.52zm-23.9 -12.86c7.9,2.34 15.2,6.11 21.6,11.01 2.36,-0.91 4.67,-1.89 6.93,-2.94 -8.68,-3.75 -18.29,-6.52 -28.53,-8.07zm2.88 16.44c5.45,-1.12 10.75,-2.57 15.82,-4.36 -8.18,-5.97 -17.81,-10.04 -28.24,-11.58 4.64,3.15 8.88,8.55 12.42,15.94zm1.08 2.38c3.06,7.05 5.34,15.3 6.75,24.24 10.15,-0.88 20.05,-2.14 29.58,-3.78 -4.23,-9.98 -10.87,-18.68 -19.18,-25.36 -5.48,2.02 -11.22,3.66 -17.15,4.9zm-2.66 0.53c-6.28,1.17 -12.76,1.91 -19.36,2.19l0 22.97c8.82,-0.13 17.55,-0.55 26.11,-1.23 -1.41,-8.86 -3.69,-17.01 -6.75,-23.93zm-19.36 -19.46l0 19.11c6.22,-0.27 12.32,-0.96 18.25,-2.04 -5.09,-10.39 -11.49,-16.37 -18.25,-17.07zm-21.54 18.38c5.06,0.57 10.21,0.86 15.4,0.86 1.16,0 2.32,-0.01 3.47,-0.04l0 -19.2c-7.04,0.72 -13.69,7.19 -18.87,18.38zm-1.08 2.44c-2.84,6.79 -4.95,14.68 -6.25,23.21 7.5,0.42 15.1,0.63 22.73,0.63 1.16,0 2.32,0 3.47,-0.01l0 -22.91c-1.15,0.03 -2.31,0.05 -3.47,0.05 -5.55,0 -11.06,-0.33 -16.48,-0.97zm-2.72 -0.35c-6.32,-0.88 -12.48,-2.19 -18.4,-3.91 -7.34,6.66 -13.15,14.99 -16.84,24.39 9.41,1.33 19.13,2.3 29.04,2.92 1.29,-8.56 3.39,-16.51 6.2,-23.4zm13.83 -19.64c-11.22,1.91 -21.46,6.76 -29.92,13.73 5.53,1.53 11.26,2.7 17.13,3.48 0.08,-0.18 0.16,-0.36 0.25,-0.54 3.54,-7.7 7.83,-13.35 12.54,-16.67zm-42.41 9.5c3.07,1.25 6.25,2.37 9.5,3.37 7.4,-6.41 16.19,-11.22 25.85,-13.9 -12.93,1.74 -24.92,5.39 -35.35,10.53zm-31.22 26.21c7.03,1.56 14.34,2.9 21.86,4.02 3.66,-9.52 9.4,-18 16.67,-24.88 -3.22,-1.02 -7.24,-2.32 -10.19,-3.87 -12.06,6.44 -21.84,14.92 -28.34,24.73zm17.41 26.93c0.14,-7.15 1.38,-14.03 3.57,-20.47 -5.57,-0.83 -17.5,-2.47 -22.41,-4.19 -4.54,7.6 -7.15,15.92 -7.38,24.66l26.22 0zm66.4 -64.81l0 66.08 93.01 0 -93.01 0 0 66.08 0 -66.08 -93.07 0 93.07 0 0 -66.08z"
   id="path9"
   style="fill-opacity:1;fill:url(#linearGradient859)" />
 </g>
</svg>
