<?xml version="1.0" encoding="UTF-8" standalone="no"?>
<svg
   xmlns:dc="http://purl.org/dc/elements/1.1/"
   xmlns:cc="http://creativecommons.org/ns#"
   xmlns:rdf="http://www.w3.org/1999/02/22-rdf-syntax-ns#"
   xmlns:svg="http://www.w3.org/2000/svg"
   xmlns="http://www.w3.org/2000/svg"
   xmlns:xlink="http://www.w3.org/1999/xlink"
   xmlns:sodipodi="http://sodipodi.sourceforge.net/DTD/sodipodi-0.dtd"
   xmlns:inkscape="http://www.inkscape.org/namespaces/inkscape"
   xml:space="preserve"
   width="512px"
   height="512px"
   version="1.1"
   style="shape-rendering:geometricPrecision; text-rendering:geometricPrecision; image-rendering:optimizeQuality; fill-rule:evenodd; clip-rule:evenodd"
   viewBox="0 0 224.2 224.2"
   id="svg68"
   sodipodi:docname="icon-solid-announce.svg"
   inkscape:version="1.0.2-2 (e86c870879, 2021-01-15)"><metadata
   id="metadata72"><rdf:RDF><cc:Work
       rdf:about=""><dc:format>image/svg+xml</dc:format><dc:type
         rdf:resource="http://purl.org/dc/dcmitype/StillImage" /></cc:Work></rdf:RDF></metadata><sodipodi:namedview
   pagecolor="#ffffff"
   bordercolor="#666666"
   borderopacity="1"
   objecttolerance="10"
   gridtolerance="10"
   guidetolerance="10"
   inkscape:pageopacity="0"
   inkscape:pageshadow="2"
   inkscape:window-width="1920"
   inkscape:window-height="1051"
   id="namedview70"
   showgrid="false"
   inkscape:zoom="1.2153398"
   inkscape:cx="351.43139"
   inkscape:cy="225.2753"
   inkscape:window-x="-9"
   inkscape:window-y="-9"
   inkscape:window-maximized="1"
   inkscape:current-layer="Camada_x0020_1" />
 <defs
   id="defs25"><linearGradient
   inkscape:collect="always"
   id="linearGradient3081"><stop
     style="stop-color:#ffffff;stop-opacity:1;"
     offset="0"
     id="stop3077" /><stop
     style="stop-color:#ffffff;stop-opacity:0;"
     offset="1"
     id="stop3079" /></linearGradient><linearGradient
   inkscape:collect="always"
   id="linearGradient915"><stop
     style="stop-color:#303132;stop-opacity:1;"
     offset="0"
     id="stop911" /><stop
     style="stop-color:#303132;stop-opacity:0;"
     offset="1"
     id="stop913" /></linearGradient>
  <style
   type="text/css"
   id="style2">
   <![CDATA[
    .fil8 {fill:#303132}
    .fil0 {fill:#000B25}
    .fil1 {fill:white}
    .fil12 {fill:white}
    .fil11 {fill:#FEFEFE;fill-rule:nonzero}
    .fil3 {fill:gray;fill-opacity:0.400000}
    .fil2 {fill:gray;fill-opacity:0.501961}
    .fil4 {fill:#CCCCCC;fill-opacity:0.501961}
    .fil9 {fill:#D3E1EB}
    .fil6 {fill:black}
    .fil7 {fill:url(#id0)}
    .fil5 {fill:url(#id1)}
    .fil10 {fill:url(#id2);fill-rule:nonzero}
   ]]>
  </style>
  <linearGradient
   id="id0"
   gradientUnits="userSpaceOnUse"
   x1="66.71"
   y1="86.74"
   x2="95.84"
   y2="56.54">
   <stop
   offset="0"
   style="stop-opacity:1; stop-color:black"
   id="stop4" />
   <stop
   offset="0.309804"
   style="stop-opacity:1; stop-color:#373435"
   id="stop6" />
   <stop
   offset="0.611765"
   style="stop-opacity:1; stop-color:#333333"
   id="stop8" />
   <stop
   offset="1"
   style="stop-opacity:1; stop-color:black"
   id="stop10" />
  </linearGradient>
  <radialGradient
   id="id1"
   gradientUnits="userSpaceOnUse"
   gradientTransform="matrix(1.19665 -0 -0 -1.02654 -15 91)"
   cx="78.47"
   cy="44.71"
   r="151.36"
   fx="78.47"
   fy="44.71">
   <stop
   offset="0"
   style="stop-opacity:1; stop-color:#373435"
   id="stop13" />
   <stop
   offset="1"
   style="stop-opacity:1; stop-color:black"
   id="stop15" />
  </radialGradient>
  <linearGradient
   id="id2"
   gradientUnits="userSpaceOnUse"
   x1="25.84"
   y1="164.6"
   x2="117.21"
   y2="164.6">
   <stop
   offset="0"
   style="stop-opacity:1; stop-color:#FEFEFE"
   id="stop18" />
   <stop
   offset="0.478431"
   style="stop-opacity:1; stop-color:#F2F2F2"
   id="stop20" />
   <stop
   offset="1"
   style="stop-opacity:1; stop-color:#E6E6E6"
   id="stop22" />
  </linearGradient>
 <radialGradient
   inkscape:collect="always"
   xlink:href="#linearGradient915"
   id="radialGradient917"
   cx="80.333824"
   cy="48.547726"
   fx="80.333824"
   fy="48.547726"
   r="10.16107"
   gradientTransform="matrix(0.12614884,-1.2761099,0.98350001,0.09722314,25.395129,147.69703)"
   gradientUnits="userSpaceOnUse" /><linearGradient
   inkscape:collect="always"
   xlink:href="#id1"
   id="linearGradient2865"
   gradientUnits="userSpaceOnUse"
   x1="67.827347"
   y1="31.367273"
   x2="77.825455"
   y2="59.900383" /><filter
   inkscape:collect="always"
   style="color-interpolation-filters:sRGB"
   id="filter3071"
   x="-0.017442262"
   width="1.0348845"
   y="-0.027893484"
   height="1.055787"><feGaussianBlur
     inkscape:collect="always"
     stdDeviation="0.7867187"
     id="feGaussianBlur3073" /></filter><radialGradient
   inkscape:collect="always"
   xlink:href="#linearGradient3081"
   id="radialGradient3085"
   gradientUnits="userSpaceOnUse"
   gradientTransform="matrix(-1.2333261,-0.00612995,0.00417531,-0.84005783,361.05396,78.264223)"
   cx="161.745"
   cy="41.994732"
   fx="161.745"
   fy="41.994732"
   r="56.013121" /></defs>
 <g
   id="Camada_x0020_1">
  <metadata
   id="CorelCorpID_0Corel-Layer" />
  <rect
   class="fil0"
   width="224.2"
   height="224.2"
   id="rect28"
   x="0"
   y="0" />
  <g
   id="_1747209105008">
   <path
   class="fil1"
   d="m 119.1,129.66 c 0.31,0.36 0.6,0.71 0.87,1.07 8.93,11.6 13.49,28.57 13.49,42.43 0,18.37 -16.54,25.77 -33.85,28.72 -1.9,-6.94 -3.43,-12.47 -4.96,-18 -2.46,-8.88 -4.92,-17.76 -7.61,-27.72 l -0.01,0.01 c -0.06,-0.24 -0.15,-0.46 -0.27,-0.67 3.92,-3.03 8.49,-6.64 13.1,-10.33 6.57,-5.24 13.64,-10.95 19.04,-15.33 v 0 c 0.07,-0.06 0.13,-0.12 0.2,-0.18 z m -45.81,74.12 c -0.24,0 -0.47,0 -0.7,0 -33.62,0 -64.26,-6.01 -64.26,-30 0,-11.8 1.4,-30.47 12.82,-41.44 0.86,-0.83 1.74,-1.64 2.65,-2.44 0.39,0.46 0.94,0.79 1.58,0.9 7.65,1.34 15.71,4.85 23.06,9.06 9.84,5.64 18.31,12.47 22.78,17.05 v 0.06 c 0.39,7.15 0.65,14.15 0.91,21.14 0.31,8.6 0.63,17.21 1.16,25.67 z"
   id="path30" />
   <path
   class="fil1"
   d="m 72.87,78.78 c 13.66,0 23.34,9.72 23.34,24.12 0,3.15 -0.06,11.77 -0.06,11.77 -3.6,26.72 -39.03,17.59 -48.9,0.14 0.11,-3.09 -0.71,-13.46 -0.71,-17.05 0,-14.4 12.66,-18.98 26.33,-18.98 z"
   id="path32" />
   <path
   class="fil2"
   d="m 73.51,86.46 c 13.66,0 21.21,10.03 21.21,24.42 0,3.15 -9.11,16.76 -38.34,7.17 -6.13,-2.01 -6.14,1.61 -8.99,-3 -0.09,-3.08 -0.58,-7.17 -0.58,-10.77 0,-14.39 13.03,-17.82 26.7,-17.82 z"
   id="path34" />
   <path
   class="fil1"
   d="m 70.98,34.61 c 20.41,0 37.65,18.02 36.83,39.9 -0.82,21.88 -8.99,43.43 -26.65,45.12 C 68.26,120.85 51.58,111.78 42.48,98.78 38.63,92.11 35.3,83.66 35.3,75.66 35.3,52.41 50.57,34.61 70.98,34.61 Z"
   id="path36" />
   <path
   class="fil3"
   d="m 82.81,52.54 c 13.44,0 24.34,8.06 24.34,17.99 0,9.93 -10.9,17.98 -24.34,17.98 -13.43,0 -24.33,-8.05 -24.33,-17.98 0,-9.93 10.9,-17.99 24.33,-17.99 z"
   id="path38" />
   <path
   class="fil4"
   d="m 85.81,117.67 c -11.62,3.57 -32.52,-4.68 -36.19,-17.34 0.09,-3.83 1.65,-9.51 3.43,-13.92 -0.32,14.78 7,22.52 14.11,26.63 6.28,3.63 13.74,4.59 18.65,4.63 z"
   id="path40" />
   <path
   class="fil5"
   d="m 70.57,27.97 c 22.65,-1.05 38.55,16.75 38.4,38.56 -1.21,1.64 -4.14,3.44 -11.92,4.8 -7.87,1.38 -64.39,7.9 -64.33,-2.85 0.11,-17.81 9.69,-39.2 37.85,-40.51 z"
   id="path42"
   style="fill:url(#linearGradient2865);fill-opacity:1" />
   <path
   class="fil6"
   d="m 36.46,72.05 c 1.34,0.77 5.78,1.8 9.5,1.92 -3.2,-12.38 0.9,-32.96 9.15,-40.03 2.59,-2.22 -1.01,-0.73 -3.55,1.18 -11.83,8.87 -15.59,25.41 -15.1,36.93 z"
   id="path44" />
   <path
   class="fil7"
   d="m 108.91,63.83 c 4.26,4.45 7.93,12.29 4.41,11.88 -3.41,-0.4 -2.93,-4.68 -18.74,-2 -14.93,2.53 -17.29,7.82 -24.9,6.58 -8.5,-1.38 -16.38,-3.41 -25.99,-6.55 31.39,-12.36 57.38,-15.1 65.22,-9.91 z"
   id="path46"
   style="fill:url(#id0)" />
   <path
   class="fil8"
   d="m 76.571576,35.207059 c 6.310536,-2.711724 13.978718,0.504507 17.133986,7.176611 3.155268,6.672104 0.603398,14.277546 -5.707138,16.989271 C 81.700458,62.084665 74.019706,58.868434 70.864438,52.19633 67.70917,45.524226 70.26104,37.918784 76.571576,35.207059 Z"
   id="path48"
   style="mix-blend-mode:lighten;fill:url(#radialGradient917);fill-opacity:1;stroke-width:1.25917" />
   <g
   id="g58">
    <g
   id="g54">
     <polygon
   class="fil9"
   points="85.03,52.54 80.65,57.95 70.68,44.53 70.68,39.24 87.71,38.23 69.54,38.23 69.54,44.53 80.56,59.85 84.99,52.6 "
   id="polygon50" />
     <path
   class="fil9"
   d="m 85.63,52.6 c -2.25,-0.1 -3.5,-1.48 -3.55,-1.54 l -3.37,-4.25 -1.31,-2.7 c 1.07,1.33 4.25,5.33 5.19,6.51 0.06,0.07 1.12,1.23 3.06,1.31 0,0 -0.01,0 -0.02,0 h 0.06 c 0.01,0 0.01,0 0.02,0 h 0.06 c -0.01,0 -0.01,0 -0.02,0 1.94,-0.08 3,-1.24 3.07,-1.31 0.01,-0.01 4.72,-5.95 4.72,-5.95 0.02,-0.02 0.03,-0.03 0.04,-0.05 0.01,-0.01 0.04,-0.03 0.09,-0.11 0.09,-0.12 0.17,-0.26 0.24,-0.4 0.17,-0.31 0.37,-0.81 0.44,-1.41 0.01,-0.08 0.02,-0.15 0.02,-0.24 0,-0.77 -0.36,-1.76 -0.97,-2.72 -1.63,-2.57 -4.52,-4.33 -7.61,-4.33 -1.52,0 -3,0.36 -4.36,1.1 l -0.09,0.05 -3.05,1.67 0.17,-0.2 c 1.92,-2.13 4.46,-3.29 7.33,-3.29 3.3,0 6.44,1.9 8.18,4.64 0.68,1.06 1.07,2.19 1.07,3.08 0,0.11 -0.01,0.22 -0.02,0.31 -0.08,0.71 -0.32,1.29 -0.51,1.65 -0.09,0.17 -0.18,0.33 -0.29,0.48 -0.05,0.07 -0.1,0.13 -0.15,0.18 l -4.73,5.96 -0.01,0.02 c -0.06,0.06 -1.3,1.44 -3.55,1.54 -0.06,0 -0.1,0 -0.15,0 z"
   id="path52" />
    </g>
    <polygon
   class="fil9"
   points="81.9,41.93 87.44,45.12 81.9,48.32 76.37,51.52 76.37,45.12 76.37,38.73 "
   id="polygon56" />
   </g>
   <path
   class="fil10"
   d="m 98.37,113.16 c 7.45,2.36 14.43,8.26 18.84,14.6 -7.56,6.13 -18.75,15.16 -27.69,22.18 0.07,-0.4 0.09,-0.82 0.07,-1.26 -0.01,-0.12 -0.02,-0.24 -0.04,-0.37 -0.7,-4.21 -4.16,-6.27 -8.11,-6.7 -1.03,-0.11 -2.09,-0.11 -3.13,-0.01 -0.16,-3.58 2.85,-7.42 7.6,-9.46 6.24,-2.69 14.86,-9.95 12.46,-18.98 z m -72.53,14.99 c 4.96,-4.86 12.89,-9.64 20.29,-11.41 3.28,7.14 11.89,13.13 21.42,15.9 5.46,1.58 8.77,5.65 8.93,9.25 -0.96,0.22 -1.9,0.52 -2.76,0.91 -3.15,1.41 -5.84,4.23 -5.05,7.93 0.01,0.06 0.02,0.11 0.03,0.17 -9.8,-8.48 -27.06,-19.98 -42.86,-22.75 z m 48.06,28.68 c 1.09,0.41 3.4,1.17 4.5,0.87 3.02,19.33 4.89,39.02 7.87,58.35 -3.44,-3.7 -7.67,-7.02 -10.23,-11.3 C 75,188.76 74.78,172.82 73.9,156.83 Z m 6.97,1.14 c 1.12,0.11 3.05,-0.52 3.57,-1.11 4.16,15.38 8.49,30.75 12.7,46.13 0.44,1.37 0.44,2.81 -0.33,3.89 -1.82,2.92 -3.58,5.9 -5.72,8.59 -3.18,-19.17 -7.1,-38.33 -10.22,-57.5 z"
   id="path60"
   style="fill:url(#id2)" />
   <path
   class="fil11"
   d="m 86.92,148.78 c 0.43,5.46 -14.35,7.48 -15.65,1.37 -1.05,-6.31 14.41,-8.85 15.65,-1.37 z"
   id="path62" />
  </g>
  <path
   class="fil12"
   d="m 123.46,62.38 c -4.82,-2.83 -8.73,-6.19 -11.46,-9.92 -2.7,-3.68 -4.37,-7.9 -4.38,-12.5 0,-5.01 1.99,-9.98 5.87,-14.45 2.81,-3.23 6.31,-5.9 9.98,-8.06 3.55,-2.08 7.59,-3.87 12.01,-5.32 8.54,-2.78 17.67,-4.01 26.63,-3.98 14.8,0.06 28.19,3.6 37.91,9.3 3.67,2.16 7.17,4.83 9.98,8.06 3.88,4.47 5.87,9.44 5.87,14.45 -0.01,4.6 -1.68,8.82 -4.38,12.5 -2.73,3.73 -6.64,7.09 -11.46,9.92 -9.71,5.7 -23.11,9.25 -37.92,9.31 -6.07,0.02 -12.15,-0.54 -18.1,-1.75 -2.19,1.27 -10.46,4.77 -21.03,5.9 3.08,-4.85 5.71,-10.65 2.74,-12.21 -0.78,-0.41 -1.53,-0.82 -2.26,-1.25 z"
   id="path65"
   style="fill-opacity:1;fill:url(#radialGradient3085);opacity:0.89361702;filter:url(#filter3071)" />
 </g>
</svg>
