<?xml version="1.0" encoding="UTF-8" standalone="no"?>
<svg
   xmlns:dc="http://purl.org/dc/elements/1.1/"
   xmlns:cc="http://creativecommons.org/ns#"
   xmlns:rdf="http://www.w3.org/1999/02/22-rdf-syntax-ns#"
   xmlns:svg="http://www.w3.org/2000/svg"
   xmlns="http://www.w3.org/2000/svg"
   xmlns:sodipodi="http://sodipodi.sourceforge.net/DTD/sodipodi-0.dtd"
   xmlns:inkscape="http://www.inkscape.org/namespaces/inkscape"
   xml:space="preserve"
   width="2100px"
   height="4021px"
   version="1.1"
   style="shape-rendering:geometricPrecision; text-rendering:geometricPrecision; image-rendering:optimizeQuality; fill-rule:evenodd; clip-rule:evenodd"
   viewBox="0 0 2333.34 4466.69"
   id="svg34"
   sodipodi:docname="installer-right.svg"
   inkscape:version="1.0.2-2 (e86c870879, 2021-01-15)"><metadata
   id="metadata38"><rdf:RDF><cc:Work
       rdf:about=""><dc:format>image/svg+xml</dc:format><dc:type
         rdf:resource="http://purl.org/dc/dcmitype/StillImage" /></cc:Work></rdf:RDF></metadata><sodipodi:namedview
   pagecolor="#ffffff"
   bordercolor="#666666"
   borderopacity="1"
   objecttolerance="10"
   gridtolerance="10"
   guidetolerance="10"
   inkscape:pageopacity="0"
   inkscape:pageshadow="2"
   inkscape:window-width="1920"
   inkscape:window-height="1051"
   id="namedview36"
   showgrid="false"
   inkscape:zoom="0.21885103"
   inkscape:cx="1050"
   inkscape:cy="2010.5"
   inkscape:window-x="-9"
   inkscape:window-y="-9"
   inkscape:window-maximized="1"
   inkscape:current-layer="svg34" />
 <defs
   id="defs20">
  <style
   type="text/css"
   id="style2">
   <![CDATA[
    .fil3 {fill:#FFF212}
    .fil1 {fill:#3E4095}
    .fil2 {fill:yellow}
    .fil4 {fill:#FEFEFE;fill-rule:nonzero}
    .fil0 {fill:#000B25;fill-rule:nonzero}
   ]]>
  </style>
    <mask
   id="id0">
  <linearGradient
   id="id1"
   gradientUnits="userSpaceOnUse"
   x1="266.8"
   y1="541.94"
   x2="514.87"
   y2="541.94">
   <stop
   offset="0"
   style="stop-opacity:0; stop-color:white"
   id="stop4" />
   <stop
   offset="1"
   style="stop-opacity:1; stop-color:white"
   id="stop6" />
  </linearGradient>
     <rect
   style="fill:url(#id1)"
   x="266.8"
   y="395.07"
   width="248.07"
   height="293.73"
   id="rect9" />
    </mask>
    <mask
   id="id2">
  <linearGradient
   id="id3"
   gradientUnits="userSpaceOnUse"
   x1="371.99"
   y1="480.79"
   x2="686.22"
   y2="480.79">
   <stop
   offset="0"
   style="stop-opacity:0; stop-color:white"
   id="stop12" />
   <stop
   offset="1"
   style="stop-opacity:1; stop-color:white"
   id="stop14" />
  </linearGradient>
     <rect
   style="fill:url(#id3)"
   x="371.99"
   y="338.67"
   width="314.23"
   height="284.23"
   id="rect17" />
    </mask>
 </defs>
 <g
   id="Camada_x0020_1">
  <metadata
   id="CorelCorpID_0Corel-Layer" />
  <rect
   id="installer-right-background"
   class="fil0"
   width="2333.3401"
   height="4466.6899"
   x="0"
   y="0" />
  <g
   id="_1747203785344">
   <path
   class="fil1"
   d="m 688.86,492.77 c -1.6,2.92 -3.36,5.7 -5.25,8.29 -0.67,0.89 -27.41,33.03 -52.27,62.89 l 68.99,-41.03 c 16.18,-8.77 24.68,-19.85 23.82,-31.06 0.04,-0.84 0.06,-1.7 0.06,-2.6 0,-16.25 -6.47,-22.36 -23.88,-33.66 l -2.1,-1.25 c 0.12,1.51 0.18,2.98 0.18,4.42 0,1.95 -0.1,3.74 -0.3,5.44 -1.43,12.22 -5.82,22.28 -9.25,28.56 z M 404.37,698.92 247.02,489.93 V 385.77 h 101.71 45.59 c 18.26,-20.5 48.84,-45.73 94.25,-56.09 L 325.34,232.61 c -24.15,-14.12 -58.23,-39.41 -78.3,-31.55 -13.76,5.98 -19.34,19.93 -19.31,33.74 l 0.08,508.93 c -0.75,6.13 0.62,12.38 3.5,17.97 3.51,7.25 7.78,12.12 15.73,15.77 7.05,2.76 15.82,1.43 25.29,-2.07 5.33,-1.77 10.46,-4.26 15.47,-7.09 13.06,-6.93 26.35,-15.85 37.53,-22.39 0,0 0,0 0.01,0 z"
   id="path24" />
   <path
   class="fil2"
   d="m 463.13,607.49 c 0,0 -85.78,-103.22 -85.8,-103.24 -0.91,-0.9 -1.78,-1.92 -2.76,-3.24 -1.86,-2.54 -3.62,-5.32 -5.22,-8.24 -3.42,-6.28 -7.81,-16.34 -9.24,-28.54 -0.21,-1.72 -0.31,-3.51 -0.31,-5.46 0,-4.09 0.49,-8.47 1.45,-13.03 1.92,-9.18 5.2,-17.57 9.22,-25.53 l 31.58,-25.14 c -46.26,2.56 -89.11,4.93 -135.25,7.49 v 87.37 l 154.59,198.87 93.48,-55.59 c -32.68,-5.38 -50.65,-24.52 -51.49,-25.43 -0.07,-0.08 -0.19,-0.21 -0.25,-0.29 z"
   mask="url(#id0)"
   id="path26" />
   <path
   class="fil3"
   d="m 600.5,582.29 c 30.37,-36.47 71.17,-85.49 73.19,-88 1.55,-2.13 3.02,-4.45 4.36,-6.91 2.95,-5.4 6.72,-14.03 7.95,-24.49 0.15,-1.27 0.22,-2.62 0.22,-4.12 0,-3.87 -0.53,-8.07 -1.56,-12.49 L 581.81,385.12 c -60.15,3.33 -120.06,6.65 -179.76,9.95 -4.74,5.48 -8.97,10.99 -12.63,16.52 -11.08,16.63 -17.43,33.83 -17.43,47.18 0,1.5 0.07,2.85 0.23,4.14 1.22,10.44 4.99,19.07 7.94,24.47 1.35,2.48 2.83,4.82 4.37,6.92 1,1.34 1.45,1.82 1.65,2 0.25,0.22 0.48,0.45 0.69,0.7 0,0 85.57,102.97 85.72,103.16 1.21,1.29 20.4,21.31 55.66,22.73 0.66,0.02 0.96,0 1.71,0 0.85,-0.03 1.66,-0.08 2.49,-0.13 z M 394.32,385.77 h 165.35 l 21.87,-0.81 -77.84,-46.29 c -25.02,3.85 -45.69,12.53 -62.41,22.88 z"
   mask="url(#id2)"
   id="path28" />
   <path
   class="fil4"
   d="M 867.5,572.03 V 770.25 H 819.94 V 639.39 h -0.64 l -45.15,130.86 h -40.5 L 688.5,639.91 h -0.54 V 770.25 H 641.44 V 572.03 h 64.94 l 48.39,142.73 h 0.5 l 48.25,-142.73 z m 36.62,0 h 78.86 c 12.63,0 24.12,1.2 34.38,3.65 10.31,2.46 19.47,5.85 27.46,10.2 8.02,4.39 14.96,9.59 20.79,15.7 5.84,6.11 10.67,12.78 14.5,20.09 3.83,7.31 6.66,15.1 8.49,23.4 1.82,8.26 2.73,16.78 2.73,25.51 0,14.37 -2.28,27.62 -6.88,39.75 -4.61,12.13 -11.41,22.67 -20.39,31.57 -8.98,8.91 -20.16,15.88 -33.52,20.87 -13.36,4.99 -28.87,7.48 -46.52,7.48 h -79.9 z m 74.71,163.12 c 20.38,0 36.07,-5.29 47.01,-15.83 10.99,-10.54 16.47,-26.5 16.47,-47.88 0,-10.93 -1.51,-20.43 -4.43,-28.48 -2.91,-8.08 -7.2,-14.75 -12.77,-20.04 -5.56,-5.34 -12.31,-9.29 -20.29,-11.88 -7.98,-2.62 -17.01,-3.91 -27.04,-3.91 h -25.4 v 128.02 z m 264.96,-8.26 h -81.91 l -15.5,43.36 h -48.48 l 76.66,-198.22 h 58.01 l 76.8,198.22 h -50.08 z m -12.31,-34.33 -28.19,-79.24 h -0.64 l -28.45,79.24 z m 183.74,80.53 c -8.94,0 -16.92,-1.68 -23.99,-5.03 -7.12,-3.36 -13.32,-8.18 -18.65,-14.37 h -0.55 v 63.79 h -45.42 V 631.65 h 42.09 l 1.19,19.92 h 0.54 c 5.61,-7.15 12.23,-12.74 19.84,-16.74 7.62,-4 16.15,-6.02 25.59,-6.02 9.71,0 18.42,1.81 26.13,5.42 7.71,3.61 14.22,8.6 19.52,15.01 5.29,6.37 9.34,13.94 12.13,22.72 2.83,8.77 4.24,18.32 4.24,28.56 0,10.24 -1.51,19.79 -4.42,28.61 -2.92,8.82 -7.12,16.47 -12.55,22.97 -5.47,6.54 -12.03,11.66 -19.74,15.4 -7.71,3.74 -16.33,5.59 -25.95,5.59 z m -14.19,-31.49 c 5.16,0 9.67,-1.03 13.55,-3.09 3.87,-2.07 7.11,-4.95 9.71,-8.57 2.56,-3.65 4.47,-7.95 5.75,-12.9 1.23,-4.95 1.87,-10.28 1.87,-16.05 0,-5.55 -0.64,-10.84 -1.87,-15.78 -1.28,-4.95 -3.15,-9.25 -5.61,-12.91 -2.51,-3.7 -5.7,-6.62 -9.58,-8.77 -3.87,-2.16 -8.39,-3.23 -13.54,-3.23 -5.25,0 -9.81,1.07 -13.64,3.18 -3.83,2.11 -7.02,4.99 -9.62,8.69 -2.6,3.66 -4.52,8 -5.75,13.04 -1.23,5.03 -1.87,10.49 -1.87,16.3 0,5.94 0.64,11.36 1.96,16.26 1.28,4.9 3.2,9.12 5.75,12.65 2.51,3.57 5.7,6.32 9.53,8.26 3.83,1.93 8.3,2.92 13.36,2.92 z m 103.39,28.65 V 572.03 h 45.42 v 198.22 z m 163.95,0 -1.05,-19.14 h -0.54 c -4.43,7.05 -10.31,12.47 -17.61,16.26 -7.34,3.83 -15.78,5.72 -25.4,5.72 -7.21,0 -13.77,-1.03 -19.66,-3.14 -5.88,-2.11 -10.85,-5.03 -15,-8.82 -4.15,-3.78 -7.34,-8.26 -9.58,-13.42 -2.23,-5.16 -3.33,-10.84 -3.33,-16.95 0,-4.04 0.51,-7.91 1.56,-11.61 1,-3.7 2.64,-7.1 4.92,-10.28 2.28,-3.14 5.2,-5.94 8.76,-8.44 3.55,-2.49 7.89,-4.51 12.95,-6.1 3.83,-1.25 8.02,-2.28 12.63,-3.1 4.61,-0.78 9.44,-1.42 14.64,-1.94 5.15,-0.51 10.58,-0.9 16.23,-1.2 5.66,-0.3 11.45,-0.52 17.43,-0.69 v -8.3 c 0,-5.77 -2.01,-10.41 -6.02,-13.98 -4.02,-3.57 -9.76,-5.34 -17.24,-5.34 -3.65,0 -6.94,0.43 -9.81,1.34 -2.92,0.86 -5.47,2.06 -7.71,3.57 -2.19,1.5 -4.1,3.35 -5.65,5.5 -1.55,2.11 -2.87,4.48 -3.92,6.97 l -33.84,-16 c 5.47,-10.84 13.27,-18.97 23.49,-24.3 10.17,-5.38 23.53,-8.05 39.99,-8.05 10.95,0 20.57,1.12 28.78,3.4 8.25,2.28 15.09,5.55 20.52,9.76 5.43,4.26 9.53,9.43 12.22,15.53 2.74,6.07 4.06,12.95 4.06,20.61 v 92.14 z m -28.46,-26.84 c 3.93,0 7.44,-0.65 10.58,-1.89 3.11,-1.25 5.8,-2.97 8.03,-5.16 2.19,-2.2 3.92,-4.82 5.06,-7.88 1.14,-3.05 1.74,-6.37 1.74,-9.89 v -7.19 c -4.29,0.26 -8.81,0.61 -13.55,0.99 -4.79,0.43 -9.35,0.99 -13.73,1.64 -2.19,0.34 -4.33,0.81 -6.38,1.42 -2.05,0.56 -3.88,1.42 -5.47,2.49 -1.65,1.12 -2.92,2.5 -3.88,4.17 -1,1.68 -1.46,3.79 -1.46,6.29 0,4.21 1.6,7.78 4.79,10.66 3.19,2.89 7.98,4.35 14.27,4.35 z m 243.03,-111.76 -57.96,146.95 c -2.7,6.79 -5.66,12.82 -8.9,17.98 -3.24,5.16 -7.06,9.51 -11.49,13.03 -4.38,3.53 -9.53,6.2 -15.41,8 -5.89,1.81 -12.73,2.72 -20.57,2.72 -4.83,0 -9.03,-0.31 -12.63,-0.91 -3.61,-0.56 -6.71,-1.2 -9.31,-1.89 v -29.81 c 1.78,0.51 3.74,0.94 5.89,1.33 2.14,0.39 4.46,0.56 6.93,0.56 6.06,0 10.94,-1.16 14.59,-3.44 3.65,-2.32 6.34,-6.24 8.17,-11.79 l -56.69,-142.73 h 47.43 l 31.97,95.24 h 0.5 l 32.06,-95.24 z"
   id="path30" />
  </g>
 </g>
</svg>
