<?xml version="1.0" encoding="UTF-8" standalone="no"?>
<svg
   xmlns:dc="http://purl.org/dc/elements/1.1/"
   xmlns:cc="http://creativecommons.org/ns#"
   xmlns:rdf="http://www.w3.org/1999/02/22-rdf-syntax-ns#"
   xmlns:svg="http://www.w3.org/2000/svg"
   xmlns="http://www.w3.org/2000/svg"
   xmlns:sodipodi="http://sodipodi.sourceforge.net/DTD/sodipodi-0.dtd"
   xmlns:inkscape="http://www.inkscape.org/namespaces/inkscape"
   xml:space="preserve"
   width="2100"
   height="797.99438"
   version="1.1"
   style="clip-rule:evenodd;fill-rule:evenodd;image-rendering:optimizeQuality;shape-rendering:geometricPrecision;text-rendering:geometricPrecision"
   viewBox="0 0 1048.56 397.94851"
   id="svg35"
   sodipodi:docname="installer-header.svg"
   inkscape:version="1.0.2-2 (e86c870879, 2021-01-15)"><metadata
   id="metadata39"><rdf:RDF><cc:Work
       rdf:about=""><dc:format>image/svg+xml</dc:format><dc:type
         rdf:resource="http://purl.org/dc/dcmitype/StillImage" /></cc:Work></rdf:RDF></metadata><sodipodi:namedview
   pagecolor="#ffffff"
   bordercolor="#666666"
   borderopacity="1"
   objecttolerance="10"
   gridtolerance="10"
   guidetolerance="10"
   inkscape:pageopacity="0"
   inkscape:pageshadow="2"
   inkscape:window-width="1920"
   inkscape:window-height="1051"
   id="namedview37"
   showgrid="false"
   inkscape:zoom="0.73285714"
   inkscape:cx="1050"
   inkscape:cy="398.9972"
   inkscape:window-x="-9"
   inkscape:window-y="-9"
   inkscape:window-maximized="1"
   inkscape:current-layer="svg35" />
 <defs
   id="defs20">
  <style
   type="text/css"
   id="style2">
   <![CDATA[
    .fil3 {fill:#FFF212}
    .fil1 {fill:#3E4095}
    .fil2 {fill:yellow}
    .fil4 {fill:#FEFEFE;fill-rule:nonzero}
    .fil0 {fill:#000B25;fill-rule:nonzero}
   ]]>
  </style>
    <mask
   id="id0">
  <linearGradient
   id="id1"
   gradientUnits="userSpaceOnUse"
   x1="161.82001"
   y1="213.92999"
   x2="275.85999"
   y2="213.92999">
   <stop
   offset="0"
   style="stop-opacity:0; stop-color:white"
   id="stop4" />
   <stop
   offset="1"
   style="stop-opacity:1; stop-color:white"
   id="stop6" />
  </linearGradient>
     <rect
   style="fill:url(#id1)"
   x="161.82001"
   y="146.42"
   width="114.04"
   height="135.02"
   id="rect9" />
    </mask>
    <mask
   id="id2">
  <linearGradient
   id="id3"
   gradientUnits="userSpaceOnUse"
   x1="210.17"
   y1="185.82001"
   x2="354.63"
   y2="185.82001">
   <stop
   offset="0"
   style="stop-opacity:0; stop-color:white"
   id="stop12" />
   <stop
   offset="1"
   style="stop-opacity:1; stop-color:white"
   id="stop14" />
  </linearGradient>
     <rect
   style="fill:url(#id3)"
   x="210.17"
   y="120.49"
   width="144.46001"
   height="130.66"
   id="rect17" />
    </mask>
 </defs>
 <g
   id="Camada_x0020_1"
   transform="translate(0,-0.25105714)">
  <metadata
   id="CorelCorpID_0Corel-Layer" />
  <polygon
   class="fil0"
   points="1048.56,398.45 0,398.45 0,0 1048.56,0 "
   id="polygon23" />
  <g
   id="_1748100899760">
   <path
   class="fil1"
   d="m 355.84,191.33 c -0.74,1.34 -1.54,2.62 -2.41,3.81 -0.31,0.41 -12.6,15.18 -24.03,28.91 l 31.71,-18.86 c 7.44,-4.03 11.35,-9.13 10.95,-14.28 0.02,-0.38 0.03,-0.78 0.03,-1.19 0,-7.48 -2.97,-10.28 -10.98,-15.48 l -0.96,-0.57 c 0.05,0.69 0.08,1.37 0.08,2.03 0,0.9 -0.05,1.72 -0.14,2.5 -0.66,5.62 -2.67,10.24 -4.25,13.13 z M 225.06,286.1 152.72,190.02 v -47.88 h 46.76 20.96 c 8.39,-9.42 22.45,-21.02 43.33,-25.79 L 188.73,71.73 c -11.1,-6.49 -26.77,-18.12 -36,-14.5 -6.32,2.75 -8.89,9.16 -8.87,15.51 l 0.04,233.95 c -0.35,2.82 0.28,5.7 1.61,8.26 1.61,3.34 3.57,5.58 7.22,7.25 3.24,1.27 7.28,0.66 11.63,-0.95 2.45,-0.81 4.81,-1.95 7.11,-3.26 6,-3.18 12.12,-7.28 17.25,-10.29 0.01,0 0.01,0 0.01,0 z"
   id="path25" />
   <path
   class="fil2"
   d="m 252.07,244.07 c 0,0 -39.43,-47.46 -39.44,-47.46 -0.42,-0.42 -0.82,-0.89 -1.27,-1.49 -0.85,-1.17 -1.66,-2.45 -2.4,-3.79 -1.57,-2.89 -3.59,-7.51 -4.25,-13.12 -0.09,-0.79 -0.14,-1.61 -0.14,-2.51 0,-1.88 0.23,-3.89 0.67,-5.99 0.88,-4.22 2.39,-8.08 4.23,-11.74 l 14.52,-11.55 c -21.26,1.17 -40.96,2.26 -62.17,3.44 v 40.16 l 71.06,91.42 42.98,-25.55 c -15.03,-2.48 -23.29,-11.27 -23.67,-11.69 -0.03,-0.04 -0.09,-0.1 -0.12,-0.13 z"
   mask="url(#id0)"
   id="path27" />
   <path
   class="fil3"
   d="m 315.22,232.48 c 13.96,-16.76 32.72,-39.3 33.64,-40.45 0.72,-0.98 1.4,-2.05 2.01,-3.18 1.36,-2.48 3.09,-6.45 3.65,-11.26 0.08,-0.58 0.11,-1.2 0.11,-1.89 0,-1.78 -0.25,-3.71 -0.72,-5.74 l -47.28,-28.12 c -27.65,1.53 -55.19,3.06 -82.64,4.58 -2.18,2.52 -4.12,5.05 -5.8,7.59 -5.09,7.65 -8.02,15.55 -8.02,21.69 0,0.69 0.04,1.31 0.11,1.9 0.56,4.8 2.29,8.77 3.65,11.25 0.62,1.14 1.3,2.22 2.01,3.18 0.46,0.62 0.66,0.84 0.76,0.92 0.11,0.1 0.22,0.21 0.31,0.32 0,0 39.34,47.34 39.41,47.42 0.56,0.6 9.38,9.8 25.59,10.45 0.3,0.01 0.44,0 0.79,0 0.38,-0.01 0.76,-0.03 1.14,-0.06 z m -94.78,-90.34 h 76.01 l 10.05,-0.37 -35.78,-21.28 c -11.5,1.77 -21,5.76 -28.69,10.52 z"
   mask="url(#id2)"
   id="path29" />
   <path
   class="fil4"
   d="m 437.96,227.76 v 91.13 H 416.1 v -60.16 h -0.3 l -20.75,60.16 h -18.62 l -20.75,-59.92 h -0.25 v 59.92 h -21.39 v -91.13 h 29.86 l 22.24,65.62 h 0.23 l 22.18,-65.62 z m 16.84,0 h 36.25 c 5.8,0 11.09,0.56 15.8,1.68 4.74,1.13 8.95,2.69 12.62,4.69 3.69,2.02 6.88,4.41 9.56,7.22 2.69,2.81 4.91,5.87 6.67,9.23 1.76,3.37 3.06,6.94 3.9,10.76 0.84,3.8 1.26,7.71 1.26,11.73 0,6.6 -1.05,12.69 -3.17,18.27 -2.12,5.58 -5.24,10.42 -9.37,14.51 -4.13,4.1 -9.27,7.3 -15.41,9.6 -6.14,2.29 -13.27,3.44 -21.38,3.44 H 454.8 Z m 34.34,74.99 c 9.37,0 16.58,-2.43 21.61,-7.28 5.05,-4.84 7.57,-12.18 7.57,-22.01 0,-5.02 -0.69,-9.39 -2.03,-13.09 -1.35,-3.72 -3.32,-6.78 -5.87,-9.21 -2.56,-2.46 -5.66,-4.27 -9.33,-5.46 -3.67,-1.21 -7.82,-1.8 -12.43,-1.8 h -11.68 v 58.85 z m 121.8,-3.8 h -37.65 l -7.13,19.94 h -22.28 l 35.24,-91.13 h 26.66 l 35.31,91.13 h -23.02 z m -5.66,-15.78 -12.96,-36.42 h -0.29 l -13.08,36.42 z m 84.47,37.02 c -4.11,0 -7.78,-0.77 -11.03,-2.31 -3.27,-1.54 -6.12,-3.76 -8.57,-6.61 h -0.26 v 29.33 h -20.88 v -85.43 h 19.35 l 0.55,9.16 h 0.25 c 2.58,-3.29 5.62,-5.86 9.12,-7.7 3.5,-1.83 7.42,-2.76 11.76,-2.76 4.47,0 8.47,0.83 12.01,2.49 3.55,1.66 6.54,3.95 8.98,6.9 2.43,2.93 4.29,6.41 5.57,10.44 1.3,4.03 1.95,8.42 1.95,13.13 0,4.71 -0.69,9.1 -2.03,13.15 -1.34,4.06 -3.27,7.58 -5.77,10.56 -2.51,3.01 -5.53,5.36 -9.07,7.08 -3.55,1.72 -7.51,2.57 -11.93,2.57 z m -6.52,-14.47 c 2.37,0 4.44,-0.48 6.22,-1.43 1.78,-0.95 3.27,-2.27 4.47,-3.93 1.17,-1.68 2.05,-3.66 2.64,-5.93 0.57,-2.28 0.86,-4.73 0.86,-7.38 0,-2.55 -0.29,-4.98 -0.86,-7.26 -0.59,-2.27 -1.45,-4.25 -2.58,-5.93 -1.15,-1.7 -2.62,-3.05 -4.4,-4.04 -1.78,-0.98 -3.86,-1.48 -6.23,-1.48 -2.41,0 -4.5,0.5 -6.27,1.46 -1.76,0.97 -3.22,2.3 -4.42,4 -1.19,1.68 -2.07,3.68 -2.64,5.99 -0.57,2.32 -0.86,4.83 -0.86,7.5 0,2.72 0.29,5.22 0.9,7.47 0.59,2.26 1.47,4.19 2.64,5.81 1.16,1.65 2.62,2.91 4.38,3.8 1.77,0.89 3.82,1.35 6.15,1.35 z m 47.52,13.17 v -91.13 h 20.88 v 91.13 z m 75.37,0 -0.48,-8.8 h -0.25 c -2.04,3.24 -4.74,5.73 -8.09,7.47 -3.38,1.76 -7.26,2.63 -11.68,2.63 -3.31,0 -6.33,-0.47 -9.04,-1.44 -2.7,-0.97 -4.99,-2.32 -6.89,-4.05 -1.91,-1.75 -3.38,-3.8 -4.41,-6.18 -1.02,-2.37 -1.53,-4.98 -1.53,-7.79 0,-1.86 0.23,-3.64 0.72,-5.34 0.46,-1.7 1.21,-3.26 2.26,-4.72 1.05,-1.45 2.39,-2.73 4.02,-3.88 1.64,-1.15 3.63,-2.07 5.96,-2.81 1.76,-0.57 3.69,-1.04 5.81,-1.42 2.11,-0.36 4.34,-0.65 6.73,-0.89 2.36,-0.24 4.86,-0.42 7.46,-0.55 2.6,-0.14 5.26,-0.24 8.01,-0.32 v -3.82 c 0,-2.65 -0.93,-4.78 -2.77,-6.42 -1.85,-1.64 -4.49,-2.46 -7.93,-2.46 -1.67,0 -3.18,0.2 -4.5,0.62 -1.34,0.39 -2.52,0.95 -3.55,1.64 -1,0.69 -1.88,1.54 -2.6,2.53 -0.71,0.97 -1.32,2.06 -1.8,3.2 l -15.55,-7.35 c 2.51,-4.99 6.1,-8.72 10.79,-11.18 4.68,-2.47 10.82,-3.69 18.39,-3.69 5.03,0 9.45,0.51 13.23,1.56 3.79,1.05 6.94,2.55 9.43,4.49 2.5,1.95 4.38,4.33 5.62,7.14 1.26,2.78 1.87,5.95 1.87,9.47 v 42.36 z m -13.08,-12.34 c 1.8,0 3.42,-0.3 4.86,-0.87 1.43,-0.58 2.67,-1.37 3.69,-2.38 1.01,-1 1.81,-2.21 2.33,-3.61 0.52,-1.41 0.8,-2.93 0.8,-4.55 v -3.31 c -1.97,0.12 -4.05,0.28 -6.23,0.46 -2.2,0.2 -4.3,0.45 -6.31,0.75 -1.01,0.16 -1.99,0.38 -2.93,0.65 -0.95,0.26 -1.79,0.66 -2.52,1.15 -0.76,0.51 -1.34,1.15 -1.78,1.92 -0.46,0.77 -0.67,1.74 -0.67,2.89 0,1.93 0.73,3.58 2.2,4.9 1.47,1.33 3.67,2 6.56,2 z m 111.72,-51.38 -26.65,67.55 c -1.23,3.13 -2.6,5.9 -4.09,8.27 -1.48,2.37 -3.24,4.37 -5.28,5.99 -2.01,1.62 -4.38,2.85 -7.08,3.68 -2.71,0.83 -5.85,1.25 -9.46,1.25 -2.22,0 -4.15,-0.14 -5.81,-0.42 -1.65,-0.26 -3.08,-0.55 -4.27,-0.87 v -13.7 c 0.81,0.23 1.72,0.43 2.7,0.61 0.99,0.18 2.06,0.26 3.19,0.26 2.79,0 5.03,-0.54 6.71,-1.59 1.67,-1.06 2.91,-2.86 3.75,-5.42 l -26.06,-65.61 h 21.8 l 14.7,43.78 h 0.23 l 14.74,-43.78 z"
   id="path31" />
  </g>
 </g>
</svg>
