<?xml version="1.0" encoding="UTF-8" standalone="no"?>
<svg
   xmlns:dc="http://purl.org/dc/elements/1.1/"
   xmlns:cc="http://creativecommons.org/ns#"
   xmlns:rdf="http://www.w3.org/1999/02/22-rdf-syntax-ns#"
   xmlns:svg="http://www.w3.org/2000/svg"
   xmlns="http://www.w3.org/2000/svg"
   xmlns:sodipodi="http://sodipodi.sourceforge.net/DTD/sodipodi-0.dtd"
   xmlns:inkscape="http://www.inkscape.org/namespaces/inkscape"
   xml:space="preserve"
   width="3840"
   height="2160"
   version="1.1"
   style="clip-rule:evenodd;fill-rule:evenodd;image-rendering:optimizeQuality;shape-rendering:geometricPrecision;text-rendering:geometricPrecision"
   viewBox="0 0 1917.37 1078.5199"
   id="svg35"
   sodipodi:docname="splash.svg"
   inkscape:version="1.0.2-2 (e86c870879, 2021-01-15)"><metadata
   id="metadata39"><rdf:RDF><cc:Work
       rdf:about=""><dc:format>image/svg+xml</dc:format><dc:type
         rdf:resource="http://purl.org/dc/dcmitype/StillImage" /><dc:title></dc:title></cc:Work></rdf:RDF></metadata><sodipodi:namedview
   pagecolor="#ffffff"
   bordercolor="#666666"
   borderopacity="1"
   objecttolerance="10"
   gridtolerance="10"
   guidetolerance="10"
   inkscape:pageopacity="0"
   inkscape:pageshadow="2"
   inkscape:window-width="1920"
   inkscape:window-height="1051"
   id="namedview37"
   showgrid="false"
   inkscape:zoom="0.27858705"
   inkscape:cx="1680.76"
   inkscape:cy="1242.4337"
   inkscape:window-x="-9"
   inkscape:window-y="-9"
   inkscape:window-maximized="1"
   inkscape:current-layer="svg35"
   inkscape:document-rotation="0" />
 <defs
   id="defs20">
  <style
   type="text/css"
   id="style2">
   <![CDATA[
    .fil3 {fill:#FFF212}
    .fil1 {fill:#3E4095}
    .fil2 {fill:yellow}
    .fil4 {fill:#FEFEFE;fill-rule:nonzero}
    .fil0 {fill:#000B25;fill-rule:nonzero}
   ]]>
  </style>
    <mask
   id="id0">
  <linearGradient
   id="id1"
   gradientUnits="userSpaceOnUse"
   x1="590.46997"
   y1="554.20001"
   x2="706.32001"
   y2="554.20001">
   <stop
   offset="0"
   style="stop-opacity:0; stop-color:white"
   id="stop4" />
   <stop
   offset="1"
   style="stop-opacity:1; stop-color:white"
   id="stop6" />
  </linearGradient>
     <rect
   style="fill:url(#id1)"
   x="590.46997"
   y="485.60999"
   width="115.85"
   height="137.17"
   id="rect9" />
    </mask>
    <mask
   id="id2">
  <linearGradient
   id="id3"
   gradientUnits="userSpaceOnUse"
   x1="639.59003"
   y1="525.64001"
   x2="786.34003"
   y2="525.64001">
   <stop
   offset="0"
   style="stop-opacity:0; stop-color:white"
   id="stop12" />
   <stop
   offset="1"
   style="stop-opacity:1; stop-color:white"
   id="stop14" />
  </linearGradient>
     <rect
   style="fill:url(#id3)"
   x="639.59003"
   y="459.26999"
   width="146.75"
   height="132.74001"
   id="rect17" />
    </mask>
 </defs>
 <g
   id="Camada_x0020_1">
  <metadata
   id="CorelCorpID_0Corel-Layer" />
  <polygon
   class="fil0"
   points="0,0 1917.37,0 1917.37,1078.52 0,1078.52 "
   id="polygon23" />
  <g
   id="_1748530801744">
   <path
   class="fil1"
   d="m 787.57,531.24 c -0.75,1.36 -1.57,2.66 -2.45,3.87 -0.31,0.41 -12.8,15.42 -24.41,29.37 l 32.22,-19.16 c 7.55,-4.1 11.52,-9.27 11.12,-14.51 0.02,-0.39 0.03,-0.79 0.03,-1.21 0,-7.59 -3.02,-10.44 -11.15,-15.72 l -0.98,-0.58 c 0.05,0.7 0.08,1.39 0.08,2.06 0,0.91 -0.05,1.74 -0.14,2.54 -0.67,5.71 -2.72,10.4 -4.32,13.34 z m -132.86,96.27 -73.48,-97.6 v -48.64 h 47.5 21.29 c 8.53,-9.57 22.81,-21.36 44.02,-26.2 l -76.23,-45.33 c -11.28,-6.59 -27.2,-18.4 -36.57,-14.73 -6.42,2.79 -9.03,9.31 -9.01,15.76 l 0.03,237.66 c -0.35,2.87 0.29,5.79 1.64,8.39 1.63,3.39 3.63,5.66 7.34,7.37 3.29,1.29 7.39,0.67 11.81,-0.96 2.49,-0.83 4.89,-1.99 7.23,-3.32 6.09,-3.23 12.3,-7.4 17.52,-10.45 0,0 0,0 0.01,0 z"
   id="path25" />
   <path
   class="fil2"
   d="m 682.16,584.81 c 0,0 -40.06,-48.2 -40.07,-48.21 -0.43,-0.42 -0.83,-0.9 -1.29,-1.51 -0.87,-1.19 -1.69,-2.49 -2.44,-3.85 -1.6,-2.94 -3.65,-7.63 -4.32,-13.33 -0.09,-0.81 -0.14,-1.64 -0.14,-2.55 0,-1.91 0.23,-3.96 0.68,-6.08 0.89,-4.3 2.43,-8.21 4.3,-11.93 l 14.75,-11.74 c -21.6,1.2 -41.61,2.3 -63.16,3.5 v 40.8 l 72.19,92.87 43.66,-25.96 c -15.26,-2.51 -23.66,-11.45 -24.05,-11.88 -0.03,-0.03 -0.09,-0.09 -0.11,-0.13 z"
   mask="url(#id0)"
   id="path27" />
   <path
   class="fil3"
   d="m 746.3,573.04 c 14.19,-17.03 33.24,-39.92 34.18,-41.1 0.73,-0.99 1.42,-2.07 2.04,-3.22 1.38,-2.52 3.14,-6.55 3.71,-11.44 0.08,-0.59 0.11,-1.22 0.11,-1.92 0,-1.81 -0.25,-3.77 -0.73,-5.83 l -48.03,-28.56 c -28.09,1.55 -56.07,3.1 -83.95,4.64 -2.21,2.56 -4.19,5.13 -5.9,7.71 -5.17,7.77 -8.14,15.81 -8.14,22.04 0,0.7 0.04,1.33 0.11,1.93 0.57,4.88 2.33,8.91 3.71,11.43 0.63,1.16 1.32,2.25 2.04,3.23 0.46,0.62 0.67,0.85 0.77,0.93 0.12,0.11 0.22,0.22 0.32,0.33 0,0 39.96,48.09 40.04,48.18 0.56,0.6 9.52,9.95 25.99,10.61 0.3,0.01 0.44,0 0.8,0 0.39,-0.01 0.77,-0.03 1.16,-0.06 z m -96.28,-91.77 h 77.22 l 10.21,-0.38 -36.35,-21.62 c -11.68,1.8 -21.33,5.85 -29.14,10.69 z"
   mask="url(#id2)"
   id="path29" />
   <path
   class="fil4"
   d="m 871,568.25 v 92.57 h -22.22 v -61.11 h -0.29 L 827.4,660.82 H 808.49 L 787.4,599.95 h -0.25 v 60.87 h -21.72 v -92.57 h 30.32 l 22.6,66.65 h 0.23 l 22.54,-66.65 z m 17.1,0 h 36.82 c 5.9,0 11.27,0.56 16.06,1.71 4.81,1.14 9.09,2.73 12.82,4.76 3.75,2.05 6.99,4.48 9.71,7.33 2.73,2.85 4.99,5.97 6.77,9.38 1.79,3.42 3.11,7.05 3.97,10.93 0.85,3.86 1.27,7.84 1.27,11.91 0,6.71 -1.06,12.9 -3.21,18.57 -2.15,5.66 -5.33,10.58 -9.52,14.74 -4.2,4.16 -9.42,7.41 -15.66,9.74 -6.24,2.33 -13.48,3.5 -21.72,3.5 H 888.1 Z m 34.88,76.18 c 9.52,0 16.85,-2.47 21.96,-7.39 5.13,-4.93 7.69,-12.38 7.69,-22.36 0,-5.11 -0.7,-9.55 -2.07,-13.3 -1.36,-3.78 -3.36,-6.89 -5.96,-9.37 -2.6,-2.49 -5.75,-4.33 -9.48,-5.54 -3.72,-1.22 -7.94,-1.83 -12.63,-1.83 h -11.86 v 59.79 z m 123.74,-3.86 h -38.25 l -7.24,20.25 h -22.64 l 35.8,-92.57 h 27.09 l 35.87,92.57 h -23.39 z m -5.75,-16.03 -13.16,-37.01 h -0.3 l -13.29,37.01 z m 85.81,37.61 c -4.18,0 -7.9,-0.79 -11.21,-2.35 -3.32,-1.57 -6.21,-3.82 -8.71,-6.71 h -0.25 v 29.79 h -21.21 v -86.79 h 19.65 l 0.56,9.3 h 0.25 c 2.62,-3.33 5.71,-5.94 9.27,-7.81 3.55,-1.87 7.54,-2.81 11.95,-2.81 4.53,0 8.6,0.84 12.2,2.53 3.6,1.69 6.64,4.02 9.11,7.01 2.47,2.97 4.37,6.51 5.67,10.61 1.32,4.09 1.98,8.55 1.98,13.33 0,4.79 -0.7,9.25 -2.07,13.36 -1.36,4.12 -3.32,7.7 -5.85,10.73 -2.56,3.06 -5.63,5.45 -9.22,7.19 -3.6,1.75 -7.63,2.62 -12.12,2.62 z m -6.63,-14.71 c 2.41,0 4.52,-0.48 6.33,-1.45 1.81,-0.96 3.32,-2.31 4.54,-3.99 1.19,-1.71 2.08,-3.72 2.68,-6.03 0.57,-2.31 0.87,-4.8 0.87,-7.49 0,-2.59 -0.3,-5.07 -0.87,-7.38 -0.6,-2.31 -1.47,-4.32 -2.62,-6.02 -1.17,-1.73 -2.66,-3.1 -4.47,-4.1 -1.81,-1.01 -3.92,-1.51 -6.33,-1.51 -2.45,0 -4.58,0.5 -6.37,1.49 -1.78,0.98 -3.28,2.33 -4.49,4.06 -1.21,1.7 -2.11,3.73 -2.68,6.08 -0.58,2.35 -0.88,4.91 -0.88,7.62 0,2.77 0.3,5.3 0.92,7.59 0.59,2.29 1.49,4.26 2.68,5.91 1.17,1.66 2.67,2.95 4.45,3.85 1.79,0.91 3.88,1.37 6.24,1.37 z m 48.28,13.38 v -92.57 h 21.22 v 92.57 z m 76.57,0 -0.49,-8.94 h -0.26 c -2.06,3.29 -4.81,5.83 -8.22,7.59 -3.43,1.79 -7.37,2.68 -11.86,2.68 -3.37,0 -6.43,-0.49 -9.18,-1.47 -2.75,-0.99 -5.07,-2.35 -7.01,-4.12 -1.93,-1.77 -3.42,-3.86 -4.47,-6.27 -1.04,-2.41 -1.55,-5.06 -1.55,-7.91 0,-1.89 0.23,-3.7 0.72,-5.43 0.47,-1.72 1.24,-3.31 2.3,-4.8 1.07,-1.46 2.43,-2.77 4.09,-3.93 1.66,-1.17 3.69,-2.11 6.05,-2.86 1.79,-0.58 3.75,-1.06 5.9,-1.44 2.15,-0.37 4.41,-0.67 6.84,-0.91 2.4,-0.24 4.94,-0.42 7.58,-0.56 2.64,-0.14 5.34,-0.24 8.13,-0.32 v -3.88 c 0,-2.69 -0.93,-4.86 -2.81,-6.53 -1.87,-1.67 -4.56,-2.49 -8.05,-2.49 -1.7,0 -3.24,0.2 -4.58,0.62 -1.36,0.41 -2.55,0.97 -3.6,1.67 -1.02,0.7 -1.91,1.57 -2.64,2.57 -0.72,0.99 -1.34,2.09 -1.83,3.26 l -15.8,-7.48 c 2.55,-5.06 6.2,-8.86 10.97,-11.35 4.74,-2.51 10.98,-3.75 18.67,-3.75 5.11,0 9.61,0.52 13.44,1.58 3.86,1.07 7.05,2.6 9.59,4.56 2.53,1.99 4.45,4.4 5.7,7.26 1.28,2.83 1.9,6.04 1.9,9.62 v 43.03 z m -13.29,-12.54 c 1.83,0 3.47,-0.3 4.94,-0.88 1.45,-0.58 2.71,-1.39 3.75,-2.41 1.02,-1.03 1.83,-2.25 2.36,-3.68 0.54,-1.42 0.81,-2.97 0.81,-4.62 v -3.35 c -2,0.12 -4.11,0.28 -6.32,0.46 -2.24,0.2 -4.37,0.46 -6.41,0.76 -1.03,0.16 -2.03,0.39 -2.98,0.67 -0.96,0.26 -1.82,0.66 -2.56,1.16 -0.77,0.52 -1.36,1.17 -1.81,1.95 -0.47,0.78 -0.68,1.77 -0.68,2.93 0,1.97 0.74,3.64 2.23,4.99 1.49,1.34 3.73,2.02 6.67,2.02 z m 113.49,-52.19 -27.07,68.63 c -1.25,3.17 -2.64,5.98 -4.15,8.39 -1.51,2.42 -3.3,4.44 -5.37,6.09 -2.04,1.65 -4.45,2.9 -7.19,3.74 -2.75,0.84 -5.95,1.26 -9.61,1.26 -2.26,0 -4.22,-0.14 -5.9,-0.42 -1.68,-0.26 -3.13,-0.56 -4.34,-0.88 v -13.92 c 0.83,0.24 1.74,0.44 2.74,0.62 1,0.18 2.09,0.26 3.24,0.26 2.83,0 5.11,-0.54 6.82,-1.61 1.7,-1.08 2.96,-2.91 3.81,-5.5 l -26.47,-66.66 h 22.14 l 14.93,44.48 h 0.24 l 14.97,-44.48 z"
   id="path31" />
  </g>
 </g>
</svg>
