<?xml version="1.0" encoding="UTF-8" standalone="no"?>
<svg
   xmlns:dc="http://purl.org/dc/elements/1.1/"
   xmlns:cc="http://creativecommons.org/ns#"
   xmlns:rdf="http://www.w3.org/1999/02/22-rdf-syntax-ns#"
   xmlns:svg="http://www.w3.org/2000/svg"
   xmlns="http://www.w3.org/2000/svg"
   xmlns:xlink="http://www.w3.org/1999/xlink"
   xmlns:sodipodi="http://sodipodi.sourceforge.net/DTD/sodipodi-0.dtd"
   xmlns:inkscape="http://www.inkscape.org/namespaces/inkscape"
   xml:space="preserve"
   width="438.8627"
   height="512"
   version="1.1"
   style="clip-rule:evenodd;fill-rule:evenodd;image-rendering:optimizeQuality;shape-rendering:geometricPrecision;text-rendering:geometricPrecision"
   viewBox="0 0 81.46267 95.036952"
   id="svg10"
   sodipodi:docname="icon-transparent.svg"
   inkscape:version="1.0.2-2 (e86c870879, 2021-01-15)"><metadata
   id="metadata14"><rdf:RDF><cc:Work
       rdf:about=""><dc:format>image/svg+xml</dc:format><dc:type
         rdf:resource="http://purl.org/dc/dcmitype/StillImage" /><dc:title></dc:title></cc:Work></rdf:RDF></metadata><sodipodi:namedview
   pagecolor="#ffffff"
   bordercolor="#666666"
   borderopacity="1"
   objecttolerance="10"
   gridtolerance="10"
   guidetolerance="10"
   inkscape:pageopacity="0"
   inkscape:pageshadow="2"
   inkscape:window-width="1920"
   inkscape:window-height="1051"
   id="namedview12"
   showgrid="false"
   inkscape:zoom="1.6621094"
   inkscape:cx="96.394918"
   inkscape:cy="255.98642"
   inkscape:window-x="-9"
   inkscape:window-y="-9"
   inkscape:window-maximized="1"
   inkscape:current-layer="svg10" />
 <defs
   id="defs4"><linearGradient
   inkscape:collect="always"
   id="linearGradient859"><stop
     style="stop-color:#003399;stop-opacity:1"
     offset="0"
     id="stop853" /><stop
     style="stop-color:#ffff99;stop-opacity:1"
     offset="0.34838024"
     id="stop861" /><stop
     style="stop-color:#ffff99;stop-opacity:1"
     offset="0.53239691"
     id="stop855" /><stop
     style="stop-color:#003399;stop-opacity:1"
     offset="1"
     id="stop857" /></linearGradient><linearGradient
   inkscape:collect="always"
   id="linearGradient20"><stop
     style="stop-color:#003399;stop-opacity:1"
     offset="0"
     id="stop16" /><stop
     style="stop-color:#ffff99;stop-opacity:1"
     offset="0.5"
     id="stop24" /><stop
     style="stop-color:#003399;stop-opacity:1"
     offset="1"
     id="stop18" /></linearGradient>
  <style
   type="text/css"
   id="style2">
   <![CDATA[
    .fil0 {fill:#FEFEFE}
   ]]>
  </style>
 <linearGradient
   inkscape:collect="always"
   xlink:href="#linearGradient20"
   id="linearGradient22"
   x1="193.27"
   y1="291.75"
   x2="18.781216"
   y2="30.244093"
   gradientUnits="userSpaceOnUse" /><linearGradient
   inkscape:collect="always"
   xlink:href="#linearGradient859"
   id="linearGradient851"
   gradientUnits="userSpaceOnUse"
   x1="178.15436"
   y1="278.92462"
   x2="18.781216"
   y2="30.244093" /></defs>
 <g
   id="Camada_x0020_1"
   transform="matrix(0.24381334,0,0,0.24381334,-2.8405774e-4,-0.00393236)"
   style="fill-opacity:1;fill:url(#linearGradient22)">
  <metadata
   id="CorelCorpID_0Corel-Layer"
   style="fill-opacity:1.0;fill:url(#linearGradient22)" />
  <path
   class="fil0"
   d="m 310.33,197.26 c -1.07,1.97 -2.25,3.83 -3.53,5.58 -0.44,0.6 -18.44,22.22 -35.16,42.31 l 46.41,-27.6 c 10.89,-5.91 16.61,-13.36 16.03,-20.9 0.03,-0.56 0.04,-1.15 0.04,-1.75 0,-10.93 -4.35,-15.04 -16.07,-22.64 l -1.41,-0.85 c 0.08,1.02 0.12,2.01 0.12,2.98 0,1.31 -0.07,2.51 -0.2,3.65 -0.97,8.23 -3.92,14.99 -6.23,19.22 z M 118.93,335.96 13.06,195.35 v -70.08 h 68.43 30.67 C 124.45,111.48 145.03,94.5 175.58,87.53 L 65.75,22.22 C 49.5,12.73 26.58,-4.29 13.07,1 3.82,5.02 0.06,14.41 0.08,23.7 l 0.06,342.41 c -0.51,4.12 0.41,8.33 2.35,12.08 2.36,4.89 5.23,8.16 10.58,10.62 4.74,1.85 10.65,0.96 17.02,-1.39 3.59,-1.2 7.03,-2.87 10.41,-4.78 8.78,-4.66 17.73,-10.66 25.25,-15.06 0,0 0,0 0,0 z m 39.53,-61.51 c 0,0 -57.71,-69.45 -57.73,-69.46 -0.61,-0.61 -1.19,-1.3 -1.85,-2.18 -1.25,-1.72 -2.44,-3.58 -3.51,-5.55 -2.31,-4.23 -5.26,-10.99 -6.22,-19.2 -0.14,-1.16 -0.21,-2.36 -0.21,-3.67 0,-2.76 0.33,-5.7 0.97,-8.77 1.3,-6.18 3.5,-11.82 6.21,-17.17 l 21.25,-16.92 c -31.13,1.72 -59.96,3.32 -91,5.04 v 58.78 l 104.01,133.8 62.89,-37.4 c -21.98,-3.62 -34.08,-16.5 -34.64,-17.11 -0.05,-0.05 -0.13,-0.14 -0.17,-0.19 z m 92.42,-16.96 c 20.44,-24.54 47.89,-57.52 49.25,-59.21 1.04,-1.43 2.03,-2.99 2.94,-4.64 1.98,-3.64 4.52,-9.44 5.34,-16.48 0.1,-0.86 0.15,-1.76 0.15,-2.77 0,-2.61 -0.36,-5.43 -1.05,-8.41 l -69.2,-41.14 c -40.47,2.24 -80.78,4.47 -120.94,6.69 -3.2,3.69 -6.04,7.39 -8.5,11.11 -7.45,11.19 -11.73,22.77 -11.73,31.75 0,1.01 0.05,1.91 0.16,2.78 0.82,7.03 3.35,12.83 5.34,16.46 0.91,1.67 1.91,3.25 2.94,4.66 0.67,0.9 0.97,1.23 1.11,1.34 0.17,0.15 0.32,0.31 0.46,0.48 0,0 57.57,69.27 57.68,69.4 0.81,0.87 13.72,14.34 37.45,15.3 0.44,0.01 0.64,0 1.15,0 0.57,-0.03 1.11,-0.06 1.67,-0.09 z M 112.16,125.27 h 111.26 l 14.71,-0.54 -52.37,-31.15 c -16.84,2.59 -30.74,8.43 -41.99,15.4 z"
   id="path7"
   style="fill-opacity:1;fill:url(#linearGradient851)" />
 </g>
</svg>
